<svg id="Layer_1" data-name="Layer 1" xmlns="http://www.w3.org/2000/svg" viewBox="0 0 292.67 292.67"><defs><style>.cls-1{fill:#f9ead7;}.cls-2{fill:#0e0e0e;}.cls-3{fill:#b2b1b1;}</style></defs><path class="cls-1" d="M383.54,248.53c-.24,39.75-14.59,74.9-43.46,103.34-31.05,30.6-69.18,44.45-112.73,41.77-37-2.29-69-17-94.82-43.54-30.3-31.2-44.08-69.21-41.32-112.63,2.35-36.9,17.05-68.82,43.53-94.52,31.2-30.29,69.22-44.08,112.63-41.31,36.9,2.35,68.8,17.07,94.52,43.52C369.41,173.46,383.32,207.83,383.54,248.53Z" transform="translate(-90.87 -101.29)"/><path class="cls-2" d="M202.24,153.47c6.47-2.09,13.08-3.37,19.88-2.58,3.11.36,5-1.68,7.14-3,3.86-2.38,8.51-2.72,12.28-5.4,3.3-2.34,6-5.27,8.81-8,5.15-5,13.67-6,19.23-1.86,3.46,2.56,5.54,6.23,7,10.24a20.42,20.42,0,0,0,3.67,6.49c1.37,1.62,1.39,3.09-.44,4.3-2.68,1.77-2.34,3.65-.22,5.51,1.79,1.59,1.83,2.88-.23,4.25-.62.41-1.5,1.16-1.25,1.94,1.21,3.81-2,6.57-2.26,10-.09,1.27-.87,1.94-2.3,1.64-2.8-.59-2.35,1-1.53,2.53.93,1.77,1.66,3.67,2.63,5.37,2.19,3.82,1.25,7.19-.38,10.83a52.17,52.17,0,0,0-3.33,11.82,3.51,3.51,0,0,1-.64,1.89c-2.27,2.5-1.18,4.17,1.05,6.11a224,224,0,0,1,27.87,28.24c2.52,3.1,5.18,6.15,6.89,9.78,2.78,5.91,2.08,12.2-4.78,15.21-2.18.95-3.95,2.81-5.94,4.27-2.17-2.31-2-4.54,0-6.92a7.69,7.69,0,0,0-.3-10.56c-1.71-1.74-5.7-.94-6.58,1.45-.57,1.54-1.63,3.09-.7,4.9a1.27,1.27,0,0,1-.72,1.75c-.65.3-1-.51-1.29-1-2.42-4-6.15-7.59-4.9-13a1.39,1.39,0,0,0-.49-1.31c-3.89-4.4-7.7-8.59-13.59-10.79-4.14-1.55-9.06-1.84-12.29-5.67-.54-.64-1.8-.24-2.14,1.12-.53,2.11-.9,4.25-2.55,6-1.22,1.28.29,2.48,1,3.36,3.27,4,6.66,7.82,9.78,12,4.35,5.77,9,11.4,13.48,17.06,6.12,7.62,10.5,16,11.32,26,.88,10.75,2.11,21.47,3.13,32.21a3.12,3.12,0,0,0,2.42,3c7.71,2,15.37,4.63,23.37,1,1.24-.57,3.06-1.15,4.27.12s.89,3.31.34,4.75a65.21,65.21,0,0,1-5,10.71c-2.1,3.41-5.78,5.07-9.67,5.3a63.22,63.22,0,0,0-18.83,4.38c-5.64,2.15-10.75,1.4-13.93-3.24-2.1-3.05-2.6-6.72-3-10.26-.77-6.77-2.29-13.13-6.67-18.64-4.64-5.84-5.43-12.91-5.42-20.07,0-3.16.46-6.32.67-9.49.46-6.85-3.51-11.84-9.5-14.56-1.53-.68-3.21-.79-4.65-2s-2.62-.1-2.52,1.48c.38,5.65-1.13,10.85-3.45,15.88-1.11,2.39-2.44,4.57-4.86,5.91-10.42,5.74-19.81,13.05-29.62,19.72-4.22,2.86-9,4.76-13.09,7.9-2,1.53-2,2.64.24,3.85,4.43,2.35,8.39,5.47,13.06,7.46a9,9,0,0,1,5.33,6.1c.72,2.79-.4,4.88-3.08,4.3-5.46-1.17-10.59.3-15.84.87a10.58,10.58,0,0,1-8.54-2.82c-5.11-5.07-11.56-6.25-18.09-7.63-2.53-.54-5-1.34-6.62-3.68-2.88-4.17-.72-7.93,1-11.56,2.11-4.38,6-7.16,10.07-9.58,6.93-4.1,13.39-8.66,17.84-15.66,2.05-3.22,4.64-6.1,6.93-9.17,4.43-5.95,11-8,17.77-9.3,2.35-.44,2.27-1.1,1.66-2.76-1.1-3-2.36-5.87-3.25-8.94a114.24,114.24,0,0,1-3.71-20,26.66,26.66,0,0,0-2.76-9.05A79.67,79.67,0,0,1,196.72,230c-.6-2.22-2.19-4-2.4-6.41-.09-.93-1.22-1.1-2.45-.81,1.41,2,1,2.93-1.4,3.28-3.23.47-3.8,3.52-4.71,5.87-1.63,4.23-2.95,8.42,1.13,12.5,2.27,2.27,2,6.2,4.07,8.94.52.69-.16,2.15-1.84,1.73a11.93,11.93,0,0,1-4.73-2.71c-2.69-2.29-2.85-2.43-4.19.71-.27.63-.79,1.15-1.11,1.77-1.54,3-.41,5.76,2.69,6.83a58.93,58.93,0,0,1,5.54,2.25c.88.4,2.05,1,1.88,2.09-.15.86-1.38.94-2.26,1.21-2.23.67-4.37-.17-6.51-.4-9.22-1-18.38-6.81-19.66-17-.57-4.56.64-8.93,2.33-13.11a69.08,69.08,0,0,0,3.18-11.4c1.18-5.48,1.38-11,1.86-16.51,0-.39.08-1,.32-1.13,4.06-1.85,4.37-6.4,5.26-9.52,1.71-6,5.22-11,7.59-16.65A62.69,62.69,0,0,1,189.37,168c.36-.46.93-1.39.84-1.48-3-2.75.68-3.3,1.62-4.4a50.89,50.89,0,0,1,5.57-5A14.08,14.08,0,0,0,202.24,153.47Z" transform="translate(-90.87 -101.29)"/><path class="cls-3" d="M202.24,153.47c-1.32,1.61-2.1,3.93-4.84,3.67A11.19,11.19,0,0,1,202.24,153.47Z" transform="translate(-90.87 -101.29)"/></svg>