<svg id="Layer_1" data-name="Layer 1" xmlns="http://www.w3.org/2000/svg" viewBox="0 0 1080 443.71"><defs><style>.cls-1{fill:#fefefe;}.cls-2{fill:#0d0d0d;}</style></defs><path class="cls-1" d="M420.19,538.6v-3.36a8.57,8.57,0,0,0,0-6.74V506c2.32-3,3.47-6,0-9q0-87-.1-174c0-3.71.57-4.66,4.54-4.66q535.41.18,1070.82,0c4.15,0,4.44,1.23,4.44,4.76q-.15,217.19-.15,434.36c0,1.46,1.26,3.48-1.06,4.49-2.39-2.95-1.51-6.46-1.51-9.74q-.06-197,0-394V352.7c0-8.46-.24-8.72-8.45-7.66-17.46,2.25-35,4-52.42,6.36-2.87.38-5.66.87-7.37,3.44-6.71,10.07-15.87,18.31-21.38,29.31-3.34,6.68-6.15,13.6-9.74,20.18-2.18,4-1.39,8.89-.75,13.28a114.86,114.86,0,0,1,.79,20.71c-.25,6.78,1.18,13.41,1.17,20.14,0,.74-.13,1.74.46,2.13,6.59,4.34,3.57,10.32,2.24,15.56-1.11,4.39-1.61,7.58,2.64,10.73,3.52,2.62,3.36,7.4,2.23,11-3.4,10.86-2.13,21.87-1.8,32.82.19,6.34-1.77,10.44-8,12.27-1.6.46-3.08,1.34-4.66,1.93-3.07,1.14-4.36,3.27-4,6.53a38,38,0,0,1-.06,7.84c-.25,2.24-.66,4.91-3.75,4.54-2.81-.33-2.58-2.87-2.31-4.89.45-3.35.55-6.71.76-10.07a21.08,21.08,0,0,0-1.77-10.36c-2.27-5-.52-10.31-.4-15.46.06-2.77.35-5.16-2.36-6.87s-2.09-4.6-3.08-7.24c-.72,4.47-3.68,7.41-6.09,10.87-3.11,4.46-2.84,11-1.76,16.29,1.84,9-2.55,17.37-1.72,26.16a1.2,1.2,0,0,1-.36,1c-5.49,3.68-2.55,7.64-.93,12.09,2.46,6.8,1.3,14,.87,21.11-.12,1.92-1.4,4.25-3.62,2.95-4.51-2.62-7,0-9.57,2.83-2.24,2.43-3.73,1.36-4.25-1.16-1.29-6.3-4-12.65-.54-19.07,1.59-2.94-3.61-2.69-1.49-6-2,1.24-2.07,2.76-3.18,3.39-2.12,1.18-2.13,2.41-.74,4.47,3.66,5.44,2.69,11.51,1.21,17.31-1.06,4.13-4.8,3.71-8.3,3.88-17.09.82-34.2,0-51.32,1.24-9.4.66-19,.6-28.43,1.07-2,.1-4.12-.12-6.12.53-3.74,1.22-6.58.15-8.45-3.32-2.23,1.36-2.6,6.47-7,3.18-1.34-1-.62,1-1.19,1.38s-.8,1.3-1.68,1.18a1.44,1.44,0,0,1-1.18-1.67c1.06-4.3-3.6-2.65-3.92-2.62-6,.69-8.62-.6-9-6-.38-5.6-1.3-11.15-1.35-16.76,0-5.77,1.48-7.29,7.15-7.88a29.44,29.44,0,0,1,4.5-.15c4,.22,5.21-1.8,5.17-5.5s-1.73-4.8-5.19-4.92c-11.17-.39-11.26-.48-11.66-12-.13-3.84-1.29-5.94-5.52-5.94s-6.3,1.79-6,6.07c0,.37,0,.75,0,1.12-.21,10.82-.2,11-11.18,11.88-3.84.32-4.58,2.35-4.57,5.57s1.35,4.62,4.67,4.87c11.2.87,11.23,1,11.07,12-.09,6.11,1,12.46-3.14,17.86-1.09,1.42-1.58,4.24-3.51,3.86-2.71-.52-2.08-3.45-2.56-5.44-1.1.56-1.07,6.37-4.16,1.1-.68,3.79-4.85-2.2-5.43,1.94-.2,1.42-1.5,2.15-2.4,3-1.32,1.21-3.3,2.42-4.93,1.68-2-.88-1.55-3.19-1.2-5,.39-2,1-4-.27-5.93.65,2.23,1.4,4.68-.91,6.44-.42.33-1.84-1.5-1.81.91a3.67,3.67,0,0,1-2.85,3.77c-2.18.27-2.25-2.06-3-3.48-.34-.66-.46-1.42-.86-2.33-2.94,4.34-6.3,3.29-9.24.39-2.06-2-2.88-1.76-3.54.81a10.14,10.14,0,0,1-.77,1.63c-1.08,1.39-1.69,3.86-4.08,2.93s-2.54-3.34-2.58-5.24c-1.83,1.51-3.14,4-4.62,6.4-2.66,4.37-4.43,4.26-10.08-.09.7,2,1.36,3.46,1.23,5-.1,1.16-.83,2.8-1.85,1.74-2.2-2.25-3-.52-4.84.44-3.49,1.79-7.62,1.77-11.54,1.52-2.36-.14-2.77-2.32-2.89-4.2-.51-7.84-.12-15.7-.4-23.55-.15-4,3.25-4.59,6.38-4.67,8-.21,16.11-.05,24.16-.09,8.79,0,8.93-.26,9-9.22.08-6-1.18-11.87-.25-17.89.64-4.08-1.76-6.29-5.83-6.56a44.66,44.66,0,0,0-10.65.34c-5.77,1-11.58.55-17.38.59-4.51,0-6.22-2.31-6.41-6.63-.4-9.2,1.35-18.27,1.17-27.45-.21-10.33-2-12.39-12.15-11.8-6.35.37-12.66,1.2-19,1.13-4.54,0-6.18,2.42-6.13,6.78q.17,15.44,0,30.86c-.07,6.87-.68,7.38-7.54,8.59-7.82,1.39-15.7.74-23.55.76-4.24,0-6.19,1.43-6,5.87.2,6.16,0,12.34.07,18.51.08,6,1.12,7,7.36,7.2,7.3.17,14.61-.06,21.91.09,6.58.13,8.32,1.48,7.66,8.06-1.17,11.57-.67,23.15-1.07,34.72-.23,6.43-2.48,7.9-8.19,6.12,1.62.9,3.81,1,5.52,2.15s1.67,2.37-.63,2.87c-1.68-.47-3.14-1.8-5-1.36a11.17,11.17,0,0,1,3,.4c1.55,1.75,2,3.93.52,5.59s-3,.59-3.79-1.25c-3.37,3.19-7.73-1.68-11,1.42-.14.14,1.56,1,1.35,2.23-.82,2.17-2.77,3-4.61,4-1.66,5.42-.61,8-9.66,6.19-1.4-.27-2.82-.94-4-.5,3,.6,6.43,0,9.36,2.1a2.39,2.39,0,0,1-.37,1.64c-4.25,3-8.53,4.67-13.87,2.23-9-4.13-17.85-8.59-25.26-15.35a4.4,4.4,0,0,0-3.52-1.39c-16.37,1.54-33,.56-49.13,4.15-3.33.74-6.71.59-10.05.91-10.42,1-19.58,4.69-26.28,13.17a12.65,12.65,0,0,1-2.21,2.52c-1.24.93-2.59,1.61-4.16,1s-2-2.09-2-3.67c0-3.37.08-6.73.07-10.1,0-3-1.33-4.83-4.19-5.86a58.89,58.89,0,0,0-11.39-3c-4.93-.74-7-3.33-6.94-8.38.18-10.09-.06-20.2.09-30.3a30.88,30.88,0,0,0-3.44-15.13c-4.19-8-4.7-15.77.94-23.72,3-4.26,3.43-9.82,3.55-15.1.13-6.17-.06-12.35.07-18.52.14-6.59,1.37-7.63,7.77-8.48a125,125,0,0,1,21.86-1c4.47.19,6.68-1.28,6.36-6.05a45.73,45.73,0,0,1,.77-12.29c1-4.63-1.26-7.05-5.6-8-5.94-1.36-11.92-.94-17.9-.51-1.49.11-3,.53-4.45.62-5.84.33-7-.8-6.74-6.48.24-4.49.13-9,.13-13.47,0-8.35-3.15-11.87-11.74-11.84-5.41,0-10.84.48-16.27.62-3.58.09-4.81,2.25-4.82,5.55,0,6.54.09,13.09-.06,19.64s-1.38,7.6-7.84,8.43a127.23,127.23,0,0,1-20.17,1.08c-4-.13-5.8,1.71-5.7,5.73a100.63,100.63,0,0,1-.05,11.78c-.46,4.93,1.9,6.64,6.39,7.07,5.62.55,11.23.27,16.84.35,8.67.12,9.38.75,9.44,9.19,0,7.1.06,14.21,0,21.32s-.07,14.16,2.24,21.07c2,5.94,1.09,11.84-1.68,17.44a15.2,15.2,0,0,0-1.65,7c.15,11.42-1.63,22.75-1.5,34.16,0,4.53-2.06,6.29-6.19,7.86-12.66,4.82-25.87,3.45-38.87,4.44a133,133,0,0,1-18.5.62c-2.74-.18-4.6-.49-5.08-4.67-.61-5.31-1.72-10.64-1.54-16,.62-18-1.43-35.87-1.27-53.83.05-5.18,1.21-9.46,5.14-13,3.51-3.19,5.75-7.37,7.71-11.63,1.71-3.72,4.1-6.18,8.52-6,3.39.13,4.63-1.79,4.57-5-.05-2.24,0-4.49,0-6.73,0-6.94,0-8.59-7-9.8-3-.53-4.88-2.61-6.1-5.32A24.18,24.18,0,0,0,788.5,514c-4.38-3.73-5.74-8.36-5.58-14,.23-8.39,0-8.28-8.13-10.71-5.77-1.73-11.53-.81-17.3-.43-3.26.22-5,2.18-5.06,5.57,0,1.87-.16,3.75,0,5.61.41,5.35-1,9.84-5.13,13.59-3.36,3-5.47,7.13-7.22,11.28-1.6,3.81-4,6.29-8.35,6.26-3.86,0-5.28,2.12-5.18,5.72a42,42,0,0,1,0,5.61c-.59,5.28,1,8.7,6.88,9.22,2.9.26,4.5,2.47,5.63,5,1.32,2.91,2.56,6,4.79,8.22,5.68,5.72,5.79,12.69,5,19.89-1.06,9.47-1.52,19-1.92,28.49-.12,2.81-1.3,5.16-1.85,7.75-.51,2.38-2.86,2-4.63,1.87a40.47,40.47,0,0,1-9.83-2.25c-5.95-2.08-12.21-1.75-18.22-3-9.86-2.11-20.13-1.88-29.77-4a188.86,188.86,0,0,0-27.82-3.68c-10.07-.71-20.23.24-30.33-.59a5.65,5.65,0,0,0-2.78.25c-5.23,2.47-9.6,1.22-14.19-2.12-3.51-2.55-5.51-5.15-5.56-9.58-.09-6.66-1.39-7.8-7.83-8.27-8.28-.6-9-1.22-10.64-9.23a36,36,0,0,1-.6-7.82c.05-4.17-2.06-6.34-5.94-4.86-5.87,2.22-9.65-.28-13.25-4.33a57.76,57.76,0,0,0-6.08-5.83c-1-.85-2.49-1.67-2.62-2.84-.73-6.77-5.56-11.68-7.8-17.75a13.88,13.88,0,0,1,1.18-12.84c3.92-6.47,3.17-10.29-2.17-15.42-3.14-3-6.33-2.63-8.9.94-3.7,5.13-5.11,9.74-.48,15.63,3.83,4.88,2.58,11.2,0,16.59a105.63,105.63,0,0,0-4.26,11.39c-2.37,7-7.85,12.19-13.58,16.7-2.75,2.16-6.57.34-7.72-3.81-1.33-4.82-4.22-8.19-7.79-11.32-2.84-2.48-5.27-5.3-6.36-9.07a5.13,5.13,0,0,0-3.29-3.63c-4.11-1.28-4.75-4.23-4.34-7.92.43-3.93-.72-6.5-5.35-6.6-2.56-.05-5.46-1.29-4.3-4.41,2.31-6.19-1.31-10.61-4.08-15-3.65-5.79-3.8-11.61-2-17.72.78-2.62,1.09-4.9,0-7.56-2-5-1.2-10.35-.92-15.54.21-3.91,1-7.78,1-11.73-.06-3.46,1.46-5.68,5-6.34s5.26-2.77,5-6.31c-.3-3.85,1.7-8.67-3.89-10.49-4.52-1.47-5-5-5.08-8.92-.05-3.24.88-7.1-3.7-8.32-5-1.32-10-1.94-14.62,1.16-1.64,1.11-1.75,3.25-1.67,5.14a74.29,74.29,0,0,1-.56,8.95c-.22,2.72-1.37,4.67-4.26,5.13-3.85.61-5.56,3.16-5.34,6.71s-1.86,8.13,3.45,10.12c2.95,1.1,3.91,3.48,3.09,6.36-1.76,6.21-1.63,12.18,1.62,17.92.47.82.94,1.91.57,2.69-2.69,5.68-.41,11.38-.21,17.06.25,6.59-3.44,11.72-6.36,17.12-1,1.8-2.42,3.42-2.44,5.58,0,4.67-.76,8.22-6.67,9.06-3.71.53-2.75,4.66-2.22,7.13,1.45,6.86-2.18,10.61-7.43,13.55-3.93,2.21-5.31,1.45-6-3C421.7,543.45,422.51,540.62,420.19,538.6Z" transform="translate(-420.08 -318.42)"/><path class="cls-2" d="M1045.06,664.74c-2.65-2.74-6.4-1.49-9.5-2.6-1-.35-2.25.38-3.3-1,4.18,0,8.18-1,12.1.84,1,.49,1-.15,1.28-1.67.49-2.57,2.61.83,3.78-1.12a5.36,5.36,0,0,1-3.47-4.91l4.06,1.14.77,0c1.9.15,3.55,1.05,5.37,1.78.65-1.88-1-2.94-1.49-4.39,0-.25-.08-.5-.11-.76-1.48-2.1-4.55-2.45-6-5.19,3-1.09,3.76,2.61,5.9,2.25,3.2-.54,1.18-3,1.08-5,3,1.73,4.33,5,7.64,5.22.93-1.92-1.62-2.2-1.64-3.83.49,0,1.11-.19,1.49,0,3.18,1.87,4.18,1.57,5.33-1.74l-.14.14a13.29,13.29,0,0,0,1.65.21,8.27,8.27,0,0,0,1.72-.6l-12.75-4.58c2.73-.44,4.82-.8,7,.2,4.36,2,5.58-.23,5.55-4.16,0-5.24.27-10.49-.07-15.7-.5-7.47,1-14.78,1.26-22.17.14-3.5-.61-4.86-4.49-4.7-8.41.32-16.85.15-25.28.08-7.1-.06-7.41-.43-7.42-7.39,0-7.66.14-15.33-.06-23-.08-3.14.32-4.57,4.11-4.53,9.84.13,19.69.6,29.53-.84,3-.44,3.62-1.15,3.59-3.91-.13-12,.23-23.94-.2-35.89-.17-4.72,1.89-6.53,5.77-6.3,8.78.54,17.4-1.46,26.14-1.23,6,.16,8.45,2.66,8.76,8.6.55,10.8-1.27,21.49-1.28,32.28,0,4,.68,5.24,5.07,5.34,8.78.2,17.42-1.18,26.15-1.36,8.33-.17,10.49,2.71,9.3,9.48-1.23,7,.4,13.82.26,20.74-.11,5.19-1.15,7.3-6.83,7-9.72-.47-19.47-.11-29.21-.14-3.32,0-4.52.23-3.83,4.69,1.14,7.3.36,14.91.31,22.39,0,2.49-.1,3.44,3.27,2.47a23.45,23.45,0,0,1,8.37-.88c3.45.31,2-4,3.53-5.86,1,2.06,1.12,4.63,4.07,6.65-1.28-4.1-2.33-7.45-3.38-10.78,2.6-.85,1.47,2.93,3.76,2.73,2.12-.18,3.08,1.67,4,3.27.19.32.83,1.29.84.44,0-2.94,4.5-2,4.06-5-.51-3.61-.52-3.42,2.66-3.39,2.83,0,.45-2.93,2.13-4,.66,2.93,1.1,5.92,2.82,8.56l3.14-4.35a3.29,3.29,0,0,0,.41.33c.83.54-.22,1.91.78,2.14.61.14-.31.27-.07-.44.38-1.15-.4-1.56-1.28-1.87.59-2.42.71-5.06,3.51-6.66.29,4.52,3.92,6.34,7.21,6.84,3.1.46,1.18-4.52,3.82-5.7.31,3.33,3.16,5.8,2.61,10.8,2.52-3.8,3.94-6.27,4-9.51l.88,3.66c3.42-2.82-.7-6.25,1.06-9.09,5.55,3.51-.14,9.18,2.41,13.36,3.28.09-1.25-4,1.9-3.86,1.74.06.4,2,1.66,2.85.54-2.3,3.2-3.75,1.8-6.71-.23-.48,1.72-.77,2.33-1,2.39-1,1.26,2.86,3.88,3,1.22-.92-.51-3.15,1.13-4.71.18,2.17.33,4.06.49,6,2.44-1.91,2.59-5.13,4.54-7.5-1.14,3.56,1,6.46,1,9,8.8-7.68,3.91-18.62,6.26-28.1.63-2.52-.6-3.07-2.37-3.22a31.27,31.27,0,0,0-7.3,0c-5.63.91-7-1.15-7-6.8s1.41-7.73,7-6.79c2,.34,4.12-.07,6.17.09,2.25.17,2.91-.74,2.83-2.89-.14-3.74.2-7.5-.1-11.22s1.68-4.85,4.82-5c1.87-.09,3.75.09,5.62,0,3.15-.23,4.41,1.13,4.28,4.27-.15,3.73-.07,7.48,0,11.22,0,2.72.71,4.46,4,2.76.91-.47,2.2-.23,3.32-.26,10.06-.21,11.17,1.17,9.6,11.26-.26,1.65-.72,2.3-2.36,2.22s-3.37,0-5.06,0c-10.08,0-10.7.32-9.35,9.85a125.09,125.09,0,0,1,1,13.21c.14,3.77.57,4,5.12,4.36.33,0,.54,1.52,1,2.92,1.29-2.3-.44-5.24,2.11-6.54,1.57,1.7.7,4.18,2.07,6.57,1.52-2.24,1.32-5.08,3.57-6.36,2,1.74,0,3.37-.59,4.52a5.69,5.69,0,0,0-.55,4.83l3.41-7.26c1.17,1,.5,2.17.7,3.16.16.75-1.69,1.44-.15,2.07a1.77,1.77,0,0,0,2.4-.7c1.22-2.2,2.55-4.34,4.21-7.14.13,6.07,2.66,7.07,8,5.93,5.54-1.16,11.45-.34,17.17-1.28,2.32-.39,4.75.49,7-1.21s3.85,2.92,6.37,1.09c1.28,2.27,2.47.67,4,.2,4.63-1.39,9.43-.91,14.22-.62a62.58,62.58,0,0,0,11-.67c5.21-.62,10.41-1.13,15.37,1.11,3.14,1.42,4.07-2.7,7.17-2.32,11.17,1.36,11,1.14,11.27-10.65.08-4-.43-7.49-4.33-9.32a2,2,0,0,1-1.29-2.57c.24-1.24,1.42-1,2.27-.91,2.76.1,4.7-.24,3.35-3.86a2.11,2.11,0,0,1,2-2.73c1.88.09,1.9,2.37,2.84,3.59.71.91,1.79,2.74,3.17,3,.68.12,1.58-.16,1.83.79A1.79,1.79,0,0,1,1351,582c-6.85,1-3.8,6.34-3.87,9.66-.09,3.85,1.5,7.74,2.34,11.47,1.25-3.93,5.49-5.2,8.08-8.1.79-.88,1.28.28,1.8,1.15.79,1.36,1.72,2.9,4.5,3-1.11-9.56,3.28-19.54-3.79-28.42-.12-.15-4.88-7.27,2.85-6.47.56.06,1.93-1.5,1.79-1.82-3.46-8,3.68-15.41,1.22-23.19-2.1-6.62,1.11-13.08.09-19.63-.15-1-.29-2.38,1.47-2.36,5.2.07,5.44-3.43,5.25-7.25a11.88,11.88,0,0,1,.06-2.8,2.65,2.65,0,0,1,2.74-2.29c2.22-.1,1.75,1.59,1.65,2.73-.35,3.91-.18,7.3,4.38,9,1.48.54,2.08,1.78.88,4.24-2.34,4.76.59,10.58-1.77,15.67,6.87,7.36,2.74,15.73,2.23,23.79-.07,1.09-.77,2.75,1.42,2.95s1.92-1.25,2-2.52c.14-3.07.83-6.15,0-9.23-1.15-4.33.87-6.79,4.8-8.19,3.22-1.16,6.36-2.57,9.61-3.62,2.37-.76,2.49-2.45,2.36-4.36-.47-7,.57-14-.87-21.09-.7-3.45.84-7.54,2-11.14,1.2-3.82,1.11-7.62,1.13-11.48,0-2.08-.48-4.2-2.75-4.66-5.17-1-4.92-4.64-3.35-7.85,2.61-5.33,1.77-10.94,3-16.71-2.13.74-3.65,1.35-4.81.84,0-3.62.71-7.24-.17-10.42-1.28-4.64-1-9.22-.87-13.8.31-8.94-.71-17.79-1.24-26.68-.3-4.91,1-9.09,3.3-13.52,5.51-10.76,10.19-22.14,18.15-31.23,4.43-5.06,7.94-10.69,12.31-15.63,3.29-3.72,9-2.29,13.58-3,11.93-1.9,24-3.19,36-4.57,6.55-.75,13.14-1.2,20.18-1.82V762q-536.72,0-1073.43.11c-4.22,0-5.18-.95-5.17-5.16q.23-109.18.11-218.38c2.75-.1,3.47,1.51,3.39,3.91-.08,2.24,0,4.49,0,7a25.35,25.35,0,0,0,9.53-6.37c1.38-1.38,2.06-2.49,1.15-4.79s-.23-5.14-.6-7.7c-.56-3.85,1.14-5,4.64-4.42,3.13.49,5.33-.29,4.37-4-1.53-5.92,2.82-9.72,5.3-13.89,3.95-6.65,5.21-13.11,2.05-20.2-.41-.91-.94-2.06-.44-2.56,4.65-4.67,1.62-9.28-.32-13.56-2.13-4.7-1-9.3.51-13.33,1.64-4.32-.53-5.21-3.3-5.27-3.75-.08-4.4-1.25-3.34-4.6,1-3.07-.64-6.19.2-9.59,1-3.88,2.62-5.35,6.19-5,2.83.28,3.74-.88,3.29-3.47-.57-3.35.78-6.55.23-10.06-.81-5.14,5.29-9,12.13-8.35.91.08,1.79.38,2.7.5,8.57,1.08,8.82,1.08,8.47,9.7-.2,4.92.06,8.86,6.23,9.13,2.27.1,3.17,1.13,2.91,3.48a57.5,57.5,0,0,0,0,6.16c0,8,0,8.13-8,9.63-1.73.32-2.25.85-2.13,2.39.62,8-1.84,15.85-1.17,23.87.22,2.57-.38,5.23,2.32,7,1.36.88.89,1.89.29,3.29-3,7-4.76,13.2,1.18,20.58,2.59,3.22,8.36,9.27,2.82,15.87-1.63,1.93,1.12,2.19,2.7,2.33,7.79.69,7.92.71,7.54,8.68-.14,2.86-.72,5.25,3.44,5.44,1.75.07,4.17,1.68,4.1,3.21-.29,6.38,4.67,9.28,8.47,12.25a12.66,12.66,0,0,1,5.29,9.36c.24,2.61,1.71,3.29,3.5,4.32,2.38,1.37,3-.86,4-1.84,3.89-4.06,10.58-8.22,10.71-12.51.27-8.54,7.93-14.12,6.89-22.7-.4-3.31-.68-6.25-3.13-8.6-3.78-3.61-3.8-7.12-.53-11.24,1.26-1.6,2.81-3.3,3-5.87.12-2.06,7.93-3,9.65-1a45.44,45.44,0,0,1,6.48,9.35c1.72,3.56-1.17,6.76-2.63,9.66-3.61,7.17-2.85,14,3.2,19.46,1,.9,1.94,1.64,1.83,3.15-.8,11.05,10.52,13.06,15.18,20.08,1,1.56,3.09-.43,4.52-1,7.14-2.84,9.52-1.38,9.53,6.13,0,1.49-.07,3,0,4.49.47,8.83,2.31,10.66,10.91,10.9,6.44.18,8.65,2,8.06,8.48-.5,5.45,1.75,8.4,6.27,10.55,1.12.54,4.63-.11,2.21,3.11.36.1.89.4,1,.27,1.75-1.6,4.32-.45,6.23-2,1-.86,3.07-.86,4.6-.7,10.31,1.1,20.64.32,31,.51,4.62.08,9.21,1.9,13.87.15.43-.16,1.28.55,1.83,1,1.2,1,1.17,1,2.45.21.75-.46,4.55,1.15,5.37,1.75a8.63,8.63,0,0,0,3.48,1.38c5.15,1,10.79-1.92,15.58,2,1-2.29,2.26-1.48,4.15-.95,8,2.22,16.21,3,24.46,3.83a42.55,42.55,0,0,1,11.4,3.16,14.8,14.8,0,0,0,7.64.79c-1.52-.88-1.68-1.35-.48-2.13s.82-1.63.74-2.42c-.74-7.64,1.54-15.13,1.17-22.75-.3-6.12,1.73-12.08,1.21-18.26-.23-2.68-.56-4.81-2.6-6.91-2.51-2.58-5.61-5.62-6.15-8.84-1.08-6.42-5.38-7.6-10.25-7.95-3-.22-3.78-1-3.65-3.82.23-4.67.24-9.36,0-14-.19-3.73,1.3-5.22,4.92-4.74,4.83.64,8-.49,9-6.12.54-3,2.37-6.71,4.8-8.3,8.49-5.58,7.48-13.79,7.13-21.89-.15-3.34.71-5,4.27-5.68a48.61,48.61,0,0,1,27.58,2.3c1.38.54,2.16,1.18,2,2.78-.13,1.11.1,2.26,0,3.36-1,7.65.39,14.26,7.25,19,1.57,1.08,3.3,3,3.52,4.73.82,6.27,5.36,7.21,10.14,7.49,3.44.21,3.94,1.91,3.88,4.71-.11,5-.26,10.12,0,15.15.2,3.4-1.16,4.34-4.16,3.81-5.07-.9-8,1-9.68,6a22.89,22.89,0,0,1-6.78,10.44c-4.25,3.45-5.54,7.52-5.47,13,.24,19.65,2.13,39.27,1.18,58.93-.13,2.57,2.33,4.71.31,7.77-1.15,1.75,1.91,2.48,3.68,2.9-.77,1.64-2.64.2-3.58,1.31,1,2.4,3,1.8,4.7,1.75,15.63-.41,31.27-.78,46.85-2.29,4.66-.45,8.76-3.47,13.66-3.5,1.15,0,1.7-1.19,1.74-2.85.29-13.25,1-26.48,1.22-39.73.05-3.81,2.83-6.1,3.8-9.44,1.52-5.21.64-10.09-.84-14.47A35.86,35.86,0,0,1,854.3,569c0-10.67-.13-21.33.05-32,.06-3.11-.74-4.05-4-4.08-8.35-.06-16.71.76-25.06-.86-2.71-.53-3.83-.79-3.72-3.78.23-6.36.17-12.72,0-19.08-.07-3.14,1.14-4.35,4.29-4.29a194.07,194.07,0,0,0,25-.95c3.39-.37,4.57-1.37,4.5-4.72-.16-8,0-16.09-.1-24.13,0-2.23.23-4.59,2.65-4.52,10.06.28,20.36-3.45,30.16,1.77,2.08,1.11,3.5,2,3.3,4.81-.56,7.92.68,15.94-.88,24.35,7.34.47,14.8-1.56,22.39-1.23,4,.18,7.51,1.51,11.12,2.58s2.49,5,2,7.24c-1.26,5.73-1,11.45-.86,17.16.09,3.24-1.26,3.57-3.92,3.55-9.29-.07-18.57-.13-27.85.94-3.53.41-4.45,1.66-4.36,4.86.16,5.24-.31,10.51.14,15.71.58,6.76-1.67,13.06-2.31,19.6-.32,3.19-4.26,2.9-4.92,6.68-1,5.76-.82,10.9,1.91,15.76a33.23,33.23,0,0,1,4.18,17.86c-.3,10.47,0,20.95-.11,31.43,0,2.48.14,3.66,3.38,4.11,5.49.77,10.77,2.94,16.22,4.19,2.39.55,3,1.79,2.93,3.89,0,4.12-.07,8.23,0,12.35,0,1.25-1.83,2.92.42,3.72,1.69.61,3.19-.53,4-1.85,7.2-11.84,18.53-15.6,31.44-15.67,5.09,0,9.74-1.7,14.54-2.61,5.7-1.07,11.38-.53,17.06-1.19,8.82-1,17.8-.73,26.68-1.4,1.8-.14,1.82-.78,2,1.41.14,1.39,2.48,2.81,4.37,3.85,5.46,3,10.24,7.91,16,9.47,3.94,1.08,8,7.76,13.36,2,.34-.37,3.25-.22,4.77-1.26a7.91,7.91,0,0,0,2.58.33C1047.18,665,1046.13,664.72,1045.06,664.74Z" transform="translate(-420.08 -318.42)"/><path class="cls-2" d="M420.19,497.06c1.64.15,4.58-.39,3.78,2.06s1.56,7-3.78,6.92Z" transform="translate(-420.08 -318.42)"/><path class="cls-2" d="M420.19,528.5a4.94,4.94,0,0,1,0,6.74Z" transform="translate(-420.08 -318.42)"/><path class="cls-2" d="M1038.33,636.44h20.13l0,1h-20.17C1038.32,637.14,1038.32,636.79,1038.33,636.44Z" transform="translate(-420.08 -318.42)"/><path class="cls-2" d="M940.45,647.73h21v.53H940.54Z" transform="translate(-420.08 -318.42)"/><path class="cls-2" d="M1039.19,650.89l-14.57-1.25C1029.27,648.68,1033.9,647.88,1039.19,650.89Z" transform="translate(-420.08 -318.42)"/><path class="cls-2" d="M967.92,648.31c2.57-3.25,4.88-1.81,7.77,0Z" transform="translate(-420.08 -318.42)"/><path class="cls-2" d="M1026.43,656.3c2.31-3.66,4.25-1.55,6.71,0Z" transform="translate(-420.08 -318.42)"/><path class="cls-2" d="M1050,644c.44-1.3,1.54-1.06,2.32-.87,1.06.27,2.14,1,2,2.24s-.86.63-1.41.18C1052.07,644.8,1050.09,646.08,1050,644Z" transform="translate(-420.08 -318.42)"/><path class="cls-2" d="M440.51,453.82c-.69-.1-1.29,2.63-3.08,1.13-.07-.05.69-1.41,0-2.18C439.2,451.18,439.86,454,440.51,453.82Z" transform="translate(-420.08 -318.42)"/><path class="cls-2" d="M917.75,655a11.4,11.4,0,0,1,7.75,0Z" transform="translate(-420.08 -318.42)"/><path class="cls-2" d="M1068.35,643.76c-2.47.77-4.73.64-6.82-1.81,2.65-.06,4.65,1,6.67,2Z" transform="translate(-420.08 -318.42)"/><path class="cls-2" d="M1050,655.46c.54-2.43,2.91-2.42,4.54-3.41l-.16-.13c1,4.46-1.63,4.09-4.51,3.38Z" transform="translate(-420.08 -318.42)"/><path class="cls-2" d="M1119.32,614h5.22l0,.54h-5.44Z" transform="translate(-420.08 -318.42)"/><path class="cls-2" d="M984.43,643.41c-.77,2.34-2.19,1.85-4.4,1.49Z" transform="translate(-420.08 -318.42)"/><path class="cls-2" d="M1022.85,644.84c2.27-1.06,3.79-.62,5.85-.43C1026.71,645.65,1025.18,645.33,1022.85,644.84Z" transform="translate(-420.08 -318.42)"/><path class="cls-2" d="M1001.6,638.4c-.25,1.46-1.24,1.26-2.06,1.2-.34,0-1.22.07-.83-.74s1-1.57,2-1.35C1001.1,637.59,1001.36,638.15,1001.6,638.4Z" transform="translate(-420.08 -318.42)"/><path class="cls-2" d="M1031.74,638.1l-4.3-1.22C1029.31,636.08,1030.68,636.09,1031.74,638.1Z" transform="translate(-420.08 -318.42)"/><path class="cls-1" d="M821.14,656.94c-5.33.52-10.51-1.53-15.67.14-.68.22-1.76-.82-2.66-1.27.62-.66,1.13-1.77,2.18-1.45,5.76,1.8,11.46,0,17.19-.1,3-.07,2.32.31,3.61,3.07s1.65,5,.53,7.53c-2,4.47-5,.19-7.53.38-8.93.67-17.84-1.84-27-1.28,4.18-1.74,8.22-4.27,12.56-5C809.91,658,815.82,659.57,821.14,656.94Z" transform="translate(-420.08 -318.42)"/><path class="cls-1" d="M1328.51,727.73c1.71,2.72,5,.5,4.56,3-.28,1.62-2.76,4.08-4.16,4-2.09-.1-5.68,1.27-6.37-2.73-.91.73.21,2.24-1.23,2.84-2.62-3.09-3.68-6.84-4.85-10.92,12.39-.48,24.36,2.24,36.52,1.84Z" transform="translate(-420.08 -318.42)"/><path class="cls-1" d="M1388.49,652.85c2.08,5.3,5.63,1,8.62,1.42a2.59,2.59,0,0,1,2.53,2.38c-2.84.07-.63,5.49-3.64,4.13s-6.76-.48-9.56-3c-1-.87-1.69-1.64-1.21-2.43C1385.81,654.36,1387.11,653.84,1388.49,652.85Z" transform="translate(-420.08 -318.42)"/><path class="cls-1" d="M1110.74,726.26c7.28,1.89,13.43.74,20.85,1.07-7.47,3.95-13.93,6.71-22,5.09,2.8-1.24,5.25-.44,7.61-.71.66-.08,1.3-.27,2-.41-1.72-.28,1-3.18-1.9-3C1115.45,728.37,1113.3,729.12,1110.74,726.26Z" transform="translate(-420.08 -318.42)"/><path class="cls-1" d="M1062.08,729.51c-1.28-.75-4.59,1.38-4-1.7.63-3.44,5-2.24,7.47-3.73,1.19-.71,2.64,1.17,2.37,2.83C1067.33,730.5,1064.36,729.19,1062.08,729.51Z" transform="translate(-420.08 -318.42)"/><path class="cls-1" d="M1049.88,655.3c2.17-.23,4.59-.15,4.51-3.38,1.4,1.59,5.36,1.67,2.95,5.53-.61,1-.11,1.52-.52,1.24C1054.65,657.26,1051.46,657.91,1049.88,655.3Z" transform="translate(-420.08 -318.42)"/><path class="cls-1" d="M667.57,612.24H651.34l0-.37,16.22-1Z" transform="translate(-420.08 -318.42)"/><path class="cls-1" d="M1385.4,585.26V573.17C1389.37,577.61,1385.23,581.47,1385.4,585.26Z" transform="translate(-420.08 -318.42)"/><path class="cls-1" d="M1042.09,668.84c1.64.07,3.64-.45,3.89,1.72.06.45-2,2.26-3.46,1.31-1.19-.77-3.57.8-3.63-1.61C1038.83,667.66,1041.11,669.4,1042.09,668.84Z" transform="translate(-420.08 -318.42)"/><path class="cls-1" d="M1152.06,608.48c1.19,0,1.9-2.37,3.26-.9a1.7,1.7,0,0,1-.48,2.78c-.68.33-1.43.36-.74,1.34,1.18,1.67-.39,2.24-1.25,3.1-.38-1.22-2-2.09-.81-3.78.44-.65.15-1.8.18-2.71C1152.22,608.32,1152.06,608.48,1152.06,608.48Z" transform="translate(-420.08 -318.42)"/><path class="cls-1" d="M1413,644.38c2.74.33-.49,3.58,2,4-1.36.56-2.38-.12-3.56-.74a30.68,30.68,0,0,0-4.69-1.56c2-2.08,4.94.66,6.43-1.9Z" transform="translate(-420.08 -318.42)"/><path class="cls-1" d="M744,647.61c-3.15-.1-6.27-.67-9.23,1a1.31,1.31,0,0,1-1.84-.74,1,1,0,0,1,1.16-1.39C737.43,646.69,740.91,645.56,744,647.61Z" transform="translate(-420.08 -318.42)"/><path class="cls-1" d="M789.63,655.37c3.12,0,6.24,0,9.36,0,1,0,2.56-.35,2.28,1.39-.17,1.08-1.7,1.16-2.31.73C796.12,655.5,792.82,657.13,789.63,655.37Z" transform="translate(-420.08 -318.42)"/><path class="cls-1" d="M1388.36,583.08c3.55,3.11,1.83,5.73,1.8,8.2C1387.45,589.19,1388.91,586.47,1388.36,583.08Z" transform="translate(-420.08 -318.42)"/><path class="cls-1" d="M632.57,726.42a13,13,0,0,1-10.51,1.37C625.53,728,628.63,725.49,632.57,726.42Z" transform="translate(-420.08 -318.42)"/><path class="cls-1" d="M736.71,661.72c-2.77,0-5.25,1-9,2.18C731.23,660.77,731.23,660.77,736.71,661.72Z" transform="translate(-420.08 -318.42)"/><path class="cls-1" d="M1398.76,645.91c1.45.63,3.72.22,3.9,2.44,0,.41-1,1.32-1.56,1.3C1398.92,649.57,1399.65,647.22,1398.76,645.91Z" transform="translate(-420.08 -318.42)"/><path class="cls-1" d="M1118.21,629.37c-2.16-1-2-3.17-2.82-4.81C1117.51,625.46,1119.32,626.54,1118.21,629.37Z" transform="translate(-420.08 -318.42)"/><path class="cls-1" d="M1408.58,652.05c-1.26-1.13-3.45-1-4.22-3.31a10.75,10.75,0,0,1,5.53,2C1410.14,651.88,1409.87,652.47,1408.58,652.05Z" transform="translate(-420.08 -318.42)"/><path class="cls-1" d="M1058.63,651.47c2.55,1.27,4.54,1.28,5.62,3.22C1061.51,654.94,1061.51,654.94,1058.63,651.47Z" transform="translate(-420.08 -318.42)"/><path class="cls-1" d="M1400.41,614.5c.34,2.43.87,4.62-.2,7.09C1399.5,618.91,1399.43,616.6,1400.41,614.5Z" transform="translate(-420.08 -318.42)"/><path class="cls-1" d="M1402.33,660.83c0-.23-2.31-1.24-.22-2.78.39-.28,1.26-.53,1.47-.33C1405.56,659.58,1401.86,660.2,1402.33,660.83Z" transform="translate(-420.08 -318.42)"/><path class="cls-1" d="M716.34,698.93h-8.13C712,697.69,714.24,698,716.34,698.93Z" transform="translate(-420.08 -318.42)"/><path class="cls-1" d="M705.14,717.6a11.35,11.35,0,0,1-6.95.18C700.74,716.5,703,717.43,705.14,717.6Z" transform="translate(-420.08 -318.42)"/><path class="cls-1" d="M637.73,725.7a11.46,11.46,0,0,1,7.75,0Z" transform="translate(-420.08 -318.42)"/><path class="cls-1" d="M1413.11,644.22,1409,644c1.55-1.5,2.83-2.57,4.83-1.92l-.84,2.27Z" transform="translate(-420.08 -318.42)"/><path class="cls-1" d="M654.34,724.77h-6.71C651,723.57,652.88,723.7,654.34,724.77Z" transform="translate(-420.08 -318.42)"/><path class="cls-1" d="M1045.06,664.74c2-.47,4-.77,5.9.6-1.92-.21-4,.85-5.75-.75Z" transform="translate(-420.08 -318.42)"/><path class="cls-1" d="M636.5,612.31c3.24-.92,5.12-1,7.26-.24C641.7,613.13,639.83,612.71,636.5,612.31Z" transform="translate(-420.08 -318.42)"/><path class="cls-1" d="M1408.58,652.05l1.31-1.29c1,.17,2.73.13,2,1.55S1409.59,653.62,1408.58,652.05Z" transform="translate(-420.08 -318.42)"/><path class="cls-1" d="M662.13,723c-2.11,1.32-3.65.62-6.67,1C658.46,722.28,660,722.86,662.13,723Z" transform="translate(-420.08 -318.42)"/><path class="cls-1" d="M632.56,608.89c-2.84,2.09-4.39,1.26-6.66,1.8C628.06,608.52,629.64,609.84,632.56,608.89Z" transform="translate(-420.08 -318.42)"/><path class="cls-1" d="M743.4,634.31c1.1,1.62.7,3.14.38,5C742.4,637.56,742.91,636,743.4,634.31Z" transform="translate(-420.08 -318.42)"/><path class="cls-1" d="M1383.78,664.32c-1.17,0-2.11,0-2-1.26a1.34,1.34,0,0,1,1-.85c1,0,1.52.75,1.85,1.58A5.19,5.19,0,0,1,1383.78,664.32Z" transform="translate(-420.08 -318.42)"/><path class="cls-1" d="M1160.53,609.33c1.44,1.06,2.36,2.09,1.71,3.77l-.3.45C1161.39,612.24,1159.79,611.24,1160.53,609.33Z" transform="translate(-420.08 -318.42)"/><path class="cls-2" d="M807.84,661.4c2.54-.44,4.06-.84,5.64.22C811.8,662.35,810.26,662.32,807.84,661.4Z" transform="translate(-420.08 -318.42)"/><path class="cls-2" d="M1058.41,727.9l5.51-1.56C1062.47,729.1,1060.85,728.29,1058.41,727.9Z" transform="translate(-420.08 -318.42)"/></svg>