<?xml version="1.0" encoding="UTF-8"?>
<!DOCTYPE svg  PUBLIC '-//W3C//DTD SVG 1.1//EN'  'http://www.w3.org/Graphics/SVG/1.1/DTD/svg11.dtd'>
<svg enable-background="new 0 0 500 500" version="1.1" viewBox="0 0 500 500" xml:space="preserve" xmlns="http://www.w3.org/2000/svg">
	<g fill="#3B3B3B">
		<path d="m337.6 94.4h0.1v14.6h-0.2c0.1-4.8 0.1-9.7 0.1-14.6z"/>
		<path d="m407 21.4v-0.1h6.3v0.1h-6.3z"/>
		<path d="m407 21.4h6.3c8.9 1.4 16.7 5.1 23.3 11.2 8.9 8.3 16.1 17.9 21.4 28.8 4.7 9.6 6.2 20 6.7 30.6 0.3 6.4 0.9 12.7 1.2 19.1 0.2 3.8 0.2 7.6-1 11.4-0.5 1.5-0.3 3.1-0.6 4.6-1.1 4.5-2.2 9.1-3.6 13.5-1.9 5.8-4 11.5-6.3 17.2-1.8 4.6-4 9.2-5.8 13.8-1 2.6-1.6 5.4-2.8 7.9-1.1 2.4-2.4 4.7-3.9 6.9-1.9 2.9-3.9 5.8-6 8.5-2.8 3.5-6.9 5.3-10.9 6.9-3 1.2-6.1 2-9.2 2.9-2 0.6-4 1.3-6.1 1.6s-4.3 0.3-6.4 0.2c-3.7-0.2-7.4-0.5-11.1-0.9-3.9-0.4-8-0.6-11.8-1.6-4.9-1.3-8.7-4.2-11.3-8.9-3.4-6.1-6.8-12.1-11.4-17.4-3.1-3.5-4.9-7.8-6.4-12.3-0.6-1.9-1.7-3.6-2.7-5.3-2.2-3.6-2.1-7.8-2.8-11.8-2.5-12.4-5.1-24.8-7.7-37.2-0.1-0.7-0.2-1.4-0.3-2.2v-14.6c0.3-4.9 0.3-9.9 1.2-14.8 0.6-3.8 1.1-7.5 1.4-11.4 0.4-5 2.9-9.3 5.3-13.7 3.2-5.8 6.8-11.3 11.8-15.6 4.2-3.7 9.1-6.7 13.5-10.3 3.8-3.1 8.3-4.3 12.9-5.3 1.1-0.2 2.2-0.8 3.3-0.9 1.8-0.2 3.7-0.3 5.5-0.4 4.7-0.1 9.5-0.3 14.3-0.5z"/>
	</g>
		<g fill="#fff">
			<path d="m354.3 100.4c1-0.4 2.4-0.1 3.5 0 1.3 0.1 2.5 0.1 3.8 0.2 2.7 0.1 5.5 0.2 8.2 0.3 1.2 0 2.4 0.1 3.6-0.1 1.1-0.2 2.4-0.7 3.5-0.3 1.6 0.5 3.1 3.1 0.7 3.8s-4.6 1.2-7.1 1.3c-2.7 0-5.5 0-8.2-0.2-2.6-0.1-4.9-1.1-7.4-1.8-1.3-0.5-2.4-2.6-0.6-3.2z"/>
			<path d="m401.8 150.5c0-0.7 0.1-1.3 0.3-1.9s0.7-1 1-1.6c0.6-1.3 0-3.4 0-4.8-0.1-3.6 0.1-7.3 0.3-10.9 0.1-1.8 0.2-3.5 0.4-5.3 0.1-1.3 0-3 1.5-3.5 1.6-0.5 1.4 2.3 1.4 3.1-0.1 1.9-0.1 3.8-0.1 5.7 0 3.6 0.1 7.2-0.2 10.8 0 0.5-0.3 1.4 0.1 1.8s1.1 0.2 1.6 0.4c1.2 0.4 1.9 1.9 2.1 3.1 0.4 2.3-0.3 5.2-2.5 6.4-2.7 1.5-5.8-0.3-5.9-3.3z"/>
			<path d="m362.7 118.3c-1.6-0.8-2.2-3.2-2.9-4.6-0.4-0.9-0.8-1.8-1.4-2.7-0.5-0.7-1.3-1.9-1.1-2.8 0.2-1 1.2-0.8 1.9-0.7 1 0.2 2.1 0.1 3.1 0 2.4-0.2 4.8-0.1 7.2-0.1 1.7 0 3.9-0.4 4.9 1.5 0.9 1.8-1.3 3.8-2.4 4.9-1.3 1.4-2.9 2.6-4.5 3.6-1.5 1-3.1 1.8-4.8 0.9z"/>
			<path d="m394.7 154.3c-2.9-0.7-4.6-3-3.4-5.9 0.5-1.2 1.3-2.3 2.4-2.9 0.5-0.3 1.2-0.5 1.8-0.5 0.7 0 1.6 0.3 1.6-0.7 0.1-3.6 0.2-7.2 0.2-10.8 0-1.8 0-3.6 0.1-5.4 0-1.2-0.2-3.8 0.9-4.7 1.2-0.9 1.9 1 1.9 1.8v5.6c0 3.9 0 7.8-0.1 11.7 0 1.7-0.2 3.4 0 5.1 0.1 1.6 0.7 3 0 4.6-0.9 2.1-3.4 2.5-5.4 2.1z"/>
			<path d="m387.5 172.5c1.7 0 4 0.3 5.6-0.5 1.3-0.6 2.4-0.8 3.8-0.6 1.1 0.1 2.5 0.4 3.3 1.2 1.1 1.1 3.5-2 4.8-2.1 1.8-0.2 3.7 1.3 5.4 1.8 2.2 0.7 4.5 1 6.7 1.4 1.3 0.3 3.5 1.1 2.5 2.9-0.8 1.5-3.9 1.1-5.2 0.9-2-0.3-4-0.9-5.8-1.7-1.8-0.7-3.8-2-5.9-1.4-1.1 0.4-2.7 2.2-3.8 0.9-0.5-0.6-0.7-1.4-1.6-1.6-1-0.3-2-0.3-3-0.1-0.9 0.3-1.6 0.9-2.5 1.2s-1.8 0.3-2.7 0.4c-2.3 0.1-4.6 0.3-6.9 0.3-1.4 0-2.3-1.8-1.1-2.7 1-0.7 2.5-0.4 3.7-0.4 0.9 0.1 1.8 0.1 2.7 0.1z"/>
			<path d="m436.5 107.9c2.1-0.1 4.3-0.2 6.4-0.2 1.7 0 4.7-0.3 6.2 0.8 3.5 2.7-2.6 6.6-4.5 7.9-1.3 0.8-3.1 2.2-4.8 2.2-1.9-0.1-2.8-2.2-3.7-3.6-0.5-0.8-0.9-1.7-1.6-2.3-0.6-0.5-1.1-1.1-1.1-1.9 0.1-1.8 1.4-2.8 3.1-2.9z"/>
			<path d="m405.4 180.8c2.9 0.1 6.1-0.1 9 0.4 1 0.2 1.9 0.7 2.3 1.7 0.7 1.6-0.5 2.5-1.9 2.8s-3 0-4.4-0.1c-1.7-0.1-3.3-0.2-5-0.3-1.5-0.1-2.9-0.4-4.4-0.6-1.7-0.2-3.5-0.2-5.2-0.2-1.6 0-3.1-0.1-4.6-0.2-1.4-0.1-2.9 0-4.3-0.5-0.9-0.3-2-1.3-1.2-2.3s2.8-0.7 3.9-0.7c5.3-0.3 10.6-0.3 15.8 0z"/>
			<path d="m436.6 99.8c-1.6 0-3.8 0.1-4.1-1.9-0.2-1.8 1.3-3.9 2.5-5 1.3-1.2 2.8-2.9 4.6-3 2-0.1 3.8 0.9 5.3 2 1.5 1.2 3.4 2.6 4.6 4.2 1.5 2-1.2 2.9-2.7 3.1-2.2 0.2-4.3 0.5-6.5 0.7-1.3 0.1-2.4-0.1-3.7-0.1z"/>
			<path d="m438.3 105.7c-2.8-0.2-5.9-0.1-8.6-0.9-0.9-0.3-1.8-0.7-1.8-1.8 0.1-1.4 1.4-1.5 2.5-1.6 2.9-0.3 5.9-0.5 8.8-0.4 3 0.1 6 0.3 9 0.4 1.3 0 2.6-0.1 3.9-0.3 1-0.2 2 0.1 2.5 1.1 1.2 2.5-3.1 3.7-4.8 3.8-3.8 0.2-7.6 0-11.5-0.3z"/>
			<path d="m364.7 97.5c-2.1 0-3.8 0.1-5.7-0.9-0.6-0.3-1.4-0.5-1.6-1.2s0.5-1.7 0.8-2.3c1-1.6 3.4-2.7 5-3.6 2.1-1.2 3.6-1.6 5.8-0.4 1.6 0.9 2.9 2.2 3.9 3.7 0.8 1.1 2.5 3.2 1 4.3-1.3 1-4.1 0.5-5.6 0.5-1.2 0-2.4-0.1-3.6-0.1z"/>
			<path d="m372.2 42.9h-3.1c-0.7 0-1.9 0.2-2.5-0.3-1.1-1 1.6-3.8 2.2-4.6 2.2-3.1 5.3-7 9.2-7.7 2.4-0.4 1.9 1.3 1.5 3-0.5 2.2-1.2 4.5-1.2 6.8 0 1.2 0.3 3.4-1.6 3-1.3-0.4-3-0.2-4.5-0.2z"/>
			<path d="m428.7 42.5c-1.6 0-3.4 0.3-5-0.1-1.3-0.3-1.6-1.8-1.9-2.9-0.5-1.5-4.6-10.2-1.3-10.2 3.4 0 7 3.6 8.7 6.2 1.4 1.9 4.1 7.3-0.5 7z"/>
			<path d="m392.4 34.7v6c0 1.2 0 2.5-1.4 3-1.6 0.5-3.6 0.3-5.2 0.2-1.7-0.1-2-1.4-2-2.9 0-1.6 0.2-3.2 0.7-4.6 0.7-1.7 1.8-3 2.9-4.5 0.8-1.2 1.7-2.2 3.3-1.5 1.8 0.8 1.7 2.6 1.7 4.3z"/>
			<path d="m412.5 43.5c-1.2-0.1-2.7 0-3.4-1.2-0.8-1.5-0.6-3.7-0.7-5.3-0.1-1.8-0.5-3.8-0.1-5.6 0.4-2 2.2-1.5 3.3-0.6 1.4 1.1 2.5 2.4 3.4 3.9s2.2 3.4 2.6 5.1c0.8 3.6-2.5 3.9-5.1 3.7z"/>
			<path d="m398 35c0-1.3-0.2-2.9 0.5-4.1 1-1.5 2.2-0.4 2.5 1 0.3 1.5 0.1 3.2 0.1 4.7v5.4c0 1.1-0.2 2.2-1.6 2.3-1.3 0.1-1.6-1.2-1.7-2.2 0-2.4 0.2-4.7 0.2-7.1z"/>
		</g>
	<path d="m255.8 269.2h8.3c5.7 1.2 11.5 2.3 17.2 3.7 17.2 4.1 28.4 15 35.2 31.1 9.7 23 9.1 48.9 8.8 73.5 0 1.6-0.1 3.2-0.1 4.8-0.3 10.4-2.8 20.5-6.3 30.3-4.2 11.8-8.5 23.6-13 35.4-0.6 1.5-1.3 3.1-2.5 4.2-1.4 1.2-3.5 1.2-5.1 2.1-2 1.2-3.8 2.7-5.8 3.8-2.3 1.2-4.7 2.5-7.2 2.7-9.1 0.7-18.1 0.8-27.2 0.8-8.9 0-17.9-0.9-26.2-4.2-7.9-3.1-15.2-8.7-19.3-16.2-2.2-3.9-4.9-7.4-6.8-11.5-2.1-4.4-3.8-9-5.3-13.6-2-5.9-3.5-11.8-4.7-17.9-1.1-6-2.8-12.1-3.2-18.3-0.3-4.4-0.1-8.9-0.1-13.3 0.3-3.1 0.5-6.3 0.8-9.4 0.8-9.5 0.8-19.2 2.7-28.6 2.3-11.6 6.1-22.9 9.5-34.3 0.8-2.5 2.5-5.1 4.4-6.7 3.8-3.1 8-5.7 12.2-8.3 6.2-3.8 12.4-7.5 19.9-8.2 4.6-0.5 9.2-1.3 13.8-1.9z" fill="#545454"/>
		<path d="m257.2 312.7c0-7.2-0.1-14.5 1-21.6 0.4-2.4 3.7-5.5 5-1.8 1.1 3.4 0.9 8 0.9 11.5 0.1 3.5 0.2 6.9 0.3 10.4 0 3.5 0.5 7.6-0.6 11-0.5 1.5-1.1 2.9-2 4.2-1.3 1.9-2.9-1.6-3.3-2.4-1.7-3.7-1.3-7.4-1.3-11.3z" fill="#FE2105"/>
		<g fill="#fff">
			<path d="m265.9 435.8c0-0.1 0-0.2-0.1-0.2h-0.3c-2.4 0.2-4.9-0.4-7.3-0.2-1.4-0.3-2.8-0.4-4.3-0.8-1.2-0.3-2.4-0.7-3.6-1.1-0.4-0.1-0.9-0.1-1.4-0.2-1-0.3-2-0.6-3-1-0.6-0.2-1.2-0.4-1.7-0.9-0.5-0.4-1-0.6-1.5-1-0.7-0.5-1.1-1.3-1.2-2.2-0.1-0.5 0.1-1.1-0.2-1.6-0.2-0.3 0.1-0.8 0.2-1.1 0.1-0.4 0.2-0.7 0.4-1 0.4-0.4 0.8-0.9 1-1.5 0.4-0.9 1.3-1.5 2.1-2 1.6-1 3.3-2 5-2.8 1.7-0.9 3.5-1.5 5.4-2 0.4-0.1 0.9 0 1.2-0.2 0.4-0.2 0.8 0 1.2-0.2 0.6-0.3 1.3-0.1 1.9-0.2 1.5-0.4 2.9-0.2 4.4-0.2 1.1 0 2.2 0.3 3.2 0.6s2.1 0.6 3.1 1c1.8 0.6 3.5 1.4 5 2.4 1 0.7 2.1 1.4 3 2.3 1.3 1.3 2.3 2.9 2.8 4.8 0.1 0.6 0.3 1.1 0.4 1.7 0.1 0.5-0.2 0.9-0.4 1.3-0.1 0.4-0.3 0.7-0.6 1-1.1 1-2 2.2-3.4 2.8-0.9 0.3-1.6 0.9-2.5 1.2-0.5 0.1-1.1 0.3-1.6 0.4-0.8 0.1-1.6 0.4-2.5 0.5-0.2 0-0.5 0.1-0.7 0.1h-1.9c-0.1 0-0.2 0.1-0.3 0.2-0.4 0.1-1.1 0.1-1.8 0.1zm0.6-2.7h3.2c0.9-0.3 1.9-0.4 2.9-0.6 0.5-0.1 1-0.3 1.5-0.4 1.5-0.3 2.6-1.2 3.8-1.9 0.5-0.3 1-0.8 1-1.4 0.1-0.9-0.1-1.8-0.4-2.6-0.4-1.4-1.3-2.4-2.3-3.3-0.8-0.7-1.7-1.3-2.7-1.8-1.2-0.6-2.5-1.2-3.8-1.7s-2.6-0.8-3.9-1.2c-0.6-0.2-1.3 0-1.9 0s-1.2-0.3-1.8-0.2c-0.4 0.1-0.8 0.2-1.1 0.2-1.1 0.1-2.1-0.1-3.2 0.2-0.6 0.2-1.4 0-2 0.3-0.5 0.2-0.9 0.1-1.4 0.2-1.9 0.6-3.6 1.5-5.4 2.3-0.9 0.4-1.8 1-2.7 1.4-0.8 0.4-1.4 1.1-2.1 1.7-0.4 0.4-0.4 1-0.5 1.5-0.1 0.7-0.2 1.5 0 2.2 0.2 0.9 1 1.5 1.8 1.8 0.7 0.3 1.5 0.6 2.3 0.8s1.6 0.4 2.3 0.5c1.2 0.2 2.2 0.6 3.4 0.8 1.1 0.2 2.2 0.6 3.3 0.8 0.7 0.1 1.5 0.1 2.3 0.2 0.9 0.2 1.8 0.1 2.7 0s1.8 0.3 2.7 0.2h2z"/>
			<path d="m204.9 385.8c0.6-0.4 1.1-0.8 1.9-0.7 1.3-0.4 2.6-0.1 3.8-0.2 1-0.1 2 0.2 2.9 0.5 1 0.3 1.9 0.7 2.8 1.2 1 0.5 2 1.1 2.9 1.8 1.4 1.1 2.8 2.1 3.9 3.4s2.3 2.6 3 4.1c0.3 0.6 0.4 1.2 0.7 1.7 0.3 0.6 0.5 1.2 0.7 1.8s0.6 1.1 0.6 1.7c0.2 1.3 0.5 2.5 0.7 3.7 0.2 1.3 0.1 2.5 0.2 3.7v3.8c0 0.4-0.4 0.8-0.2 1.3 0.1 0.4-0.1 0.8-0.2 1.1-0.1 0.4-0.1 0.9-0.2 1.2-0.2 0.6-0.5 1.2-0.8 1.8-0.6 0.9-1.2 1.8-2 2.5-0.2 0.2-0.5 0.2-0.7 0-0.4-0.3-0.7-0.6-1.1-0.9-0.3-0.2-0.4-0.5-0.1-0.8 0.3-0.5 0.7-1.1 1-1.6 0.5-0.9 0.7-1.9 1-2.9 0.2-0.8 0.2-1.5 0.2-2.3v-5c0-0.8 0.1-1.5-0.2-2.3-0.2-0.7-0.1-1.5-0.5-2.2 0-1.3-0.5-2.4-0.9-3.5-0.5-1.5-1.4-2.9-2.2-4-0.9-1.3-2-2.4-3-3.4s-2.2-1.7-3.4-2.5c-1.3-0.9-2.9-1.2-4.3-1.8-0.1 0-0.1 0-0.2-0.1-1-0.1-2-0.2-3-0.2-0.8 0-1.7-0.2-2.5-0.3-0.2 0-0.5-0.3-0.7-0.4-0.1 0.1-0.1 0-0.1-0.2z"/>
			<path d="m241.9 282.5c0.1 0.1 0.2 0.1 0.4 0.2 0.1 0 0.3 0 0.4 0.1 0.1 0.2 0.4 0.3 0.6 0.4 1.7 0.8 3.2 2 4.7 3.1 1.4 1.1 2.6 2.4 3.8 3.7 0.7 0.7 1.2 1.5 1.6 2.3 0.3 0.5 0.6 1.1 0.8 1.7 0.2 0.5 0.1 0.8-0.1 0.8-0.4 0-0.5-0.1-0.7-0.5-0.7-1.4-1.6-2.7-2.8-3.8-0.4-0.4-0.9-0.8-1.3-1.3-1-1.1-2.3-1.9-3.6-2.8-1.4-1-2.9-1.8-4.3-2.7-0.3-0.2-0.6-0.4-0.8-0.7-0.2-0.2-0.1-0.4 0-0.6s0.3-0.1 0.5-0.1 0.4 0 0.6 0.1c0.1 0.1 0.2 0.1 0.2 0.1z"/>
			<path d="m279 282.6c0.2 0.1 0.1 0.4 0 0.6-0.2 0.3-0.4 0.4-0.7 0.6-0.8 0.4-1.4 1.1-2.1 1.5-0.7 0.5-1.3 1.1-2 1.7-0.3 0.3-0.8 0.5-1 0.8-0.9 1.3-2.2 2.3-3.2 3.5-0.4 0.5-0.6 1.1-1 1.7h-0.4c0.3-1.4 0.9-2.6 1.8-3.7 1.1-1.5 2.5-2.8 3.9-4.1 0.6-0.6 1.3-1.1 2.1-1.6 0.4-0.2 0.8-0.5 1.1-0.7s0.7-0.4 1-0.4c0.2 0 0.5 0.1 0.5 0.1z"/>
			<path d="m286.9 346.8c1.6 0.1 2.8-0.4 4-0.2 0.3 0.1 0.4-0.5 0.8-0.1 0.3 0.3 0.5-0.1 0.6-0.1 1 0.3 2.1 0.4 3 0.8 1.2 0.6 2.3 1.3 3.4 2.1 1.5 1.1 2.9 2.3 4.2 3.7 0.2 0.2 0.4 0.5 0.6 0.8 0.3 0.4 0.5 0.8 0.8 1.3 0.4 0.6 0.5 1.3 0.7 2.1v0.3c0.3 0.4 0.4 0.9 0.1 1.2-0.3 0.5-0.7 0.9-1.3 1.1-0.1 0-0.2 0.1-0.3 0.1-0.5-0.4-1.1-0.2-1.6-0.2h-1.6c-0.4 0-0.7-0.1-1-0.2-0.7-0.4-1.5-0.5-2.3-0.7-1-0.3-2-0.2-3-0.6-0.2-0.1-0.4 0-0.7 0h-2.7c-0.9 0-1.7-0.1-2.6-0.2-0.5-0.1-0.8 0.2-1.3 0.2-0.4 0.1-0.8 0-1.3 0.2s-1.1 0.1-1.7 0.1c-0.8-0.1-1.5 0.2-2.2 0.5-1 0.5-2.1 0.8-3.2 0.8h-1.8c-0.6 0-1.2-0.2-1.6-0.7-0.6-0.7-1.3-1.2-1.7-2.1-0.5-0.9-0.4-1.6-0.1-2.4 0.6-1.4 1.4-2.6 2.7-3.5 0.9-0.7 1.8-1.4 2.8-1.9 1.3-0.7 2.5-1.2 4.1-1.4 0.3 0 0.5-0.1 0.8-0.2 0.4-0.1 0.8-0.4 1.2-0.4 0.9-0.3 1.7-0.3 2.2-0.4z"/>
			<path d="m228.6 358.3c-0.5 0-1-0.1-1.5 0-1.4 0.3-2.9 0.1-4.3 0.2-1 0.1-2.1 0.4-3.1 0.7s-1.7 0.4-2.4 0.4c-0.7-0.1-1.6-1-1.7-1.7 0-0.6 0.4-1 0.7-1.5 0.1-0.2 0.3-0.3 0.5-0.5l3.9-3.9c1.8-1.8 3.9-3.2 6.2-4.2 0.9-0.4 1.9-0.6 2.9-0.8 0.6-0.1 1.3-0.3 1.9-0.2 0.9 0.2 1.9 0.1 2.8 0.2 1 0.1 1.9 0.4 3 0.4 0.5 0.4 1.1 0.3 1.7 0.5 0.7 0.4 1.4 0.6 2.1 1 0.9 0.4 1.9 0.9 2.6 1.7 1 1.1 1.7 2.4 1.7 4 0 1.2-0.3 2.1-1.4 2.6-0.1 0-0.1 0.1-0.2 0.2-0.8 0.6-1.6 0.9-2.6 0.8s-2.1-0.2-3.2-0.2h-6.3l-3.3 0.3z"/>
			<path d="m306.4 388.5h-1.3c-1.3 0.1-2.6 0.3-3.8 0.9-1.6 0.7-3 1.6-4.5 2.5-0.7 0.4-1.1 1.2-1.5 1.8-0.9 1.3-1.5 2.7-1.8 4.3-0.2 0.8-0.6 1.6-0.6 2.5-0.3 0.2-0.2 0.6-0.2 0.9-0.1 0.5-0.1 0.9-0.2 1.4s0 0.9-0.2 1.4-0.1 1.2 0 1.8c0 1.2-0.3 2.4-0.2 3.6s0 2.4 0 3.6c0.1 2 0.8 3.9 2.2 5.3 0.5 0.5 0.9 1.1 1.2 1.8 0.2 0.4-0.2 0.6-0.2 0.9 0 0.1-0.3 0.3-0.5 0.3-0.3 0-0.6 0-0.9-0.2-0.6-0.4-1.2-0.8-1.6-1.4s-1-1.1-1.4-1.7c-0.6-0.9-1.3-2.9-1.6-4-0.2-0.8-0.3-1.5-0.2-2.3 0.4-2.6 0.1-5.2 0.2-7.9 0-0.5 0.3-1 0.2-1.6-0.1-0.5 0-1 0.2-1.5s0.1-1.1 0.2-1.6c0.2-1.3 0.7-2.5 1-3.7 0.5-1.9 1.6-3.4 2.7-4.9 0.1-0.2 2.1-1.8 2.3-1.9 1.1-0.7 2.2-1.2 3.3-1.7 1.3-0.6 2.7-1.1 4.2-1.1 0.7 0 1.3 0.1 2 0 1.2-0.1 2.4 0.3 3.6 0.2 0.6 0.4 1.4 0.1 2.1 0.4 0.3 0.1 0.5 0.2 0.5 0.6s0 0.7-0.4 0.8c-0.2 0.1-0.5 0.2-0.7 0.2-1.4 0-2.8 0.5-4.1 0.3z"/>
			<path d="m265 388.4v-2c0-0.6-0.2-1.2-0.2-1.8s-0.3-1.2-0.4-1.7c-0.1-0.8-0.1-1.6 0-2.4 0-0.3 0.5-0.6 0.7-0.8 0.6-0.6 0.9-0.7 1.6-0.3 0.8 0.4 1.4 1 1.8 1.8 0.7 1.1 1.1 2.2 1.6 3.4 0.4 0.8 0.5 1.7 0.7 2.6 0.2 1.1 0.3 2.2 0.2 3.3-0.1 1.3-0.1 2.6-0.7 3.9-0.3 0.7-0.9 1.2-1.6 1.6-0.7 0.3-1.3-0.1-1.9-0.1-0.4-0.5-1.1-0.8-1.3-1.6-0.2-0.7-0.4-1.3-0.5-2.1-0.1-0.6-0.2-1.2-0.2-1.8 0.2-0.8 0.2-1.4 0.2-2z"/>
			<path d="m256.7 384.3v1.9c0.1 0.8-0.3 1.5-0.3 2.4 0.1 0.8 0.2 1.6 0 2.3-0.2 0.6-0.1 1.3-0.4 2-0.3 0.6-0.4 1.2-0.7 1.7-0.5 1.1-1.3 1.7-2.3 2-0.2 0.1-0.4 0-0.6-0.1-0.5-0.2-1-0.6-1.4-0.9s-0.2-0.8-0.6-1.1c0.1-0.8-0.4-1.6-0.2-2.4 0.2-1.3 0.4-2.7 1-4 0.3-0.6 0.5-1.2 0.6-1.9 0.2-1 0.4-2.1 0.6-3.1 0.1-0.5 0.2-1.1 0.3-1.7 0.2-1 0.9-1.5 1.7-1.9 0.3-0.1 0.8 0 1.1 0.3 0.7 0.5 1.3 1.1 1.2 2.2v2.3z"/>
			<path d="m306.4 294.8s-0.1 0.2-0.2 0.3c-0.2 0.1-0.4 0.2-0.6 0.2-0.7-0.1-1.4 0.2-2.1 0.3-1.2 0.2-2.4 0.5-3.6 0.7-1.1 0.2-2.1 0.6-3.1 0.8s-2 0.6-2.9 1c-1.1 0.4-2.1 0.8-3.2 1.2-0.5 0.2-1 0.4-1.5 0.7-1.9 0.9-3.8 1.7-5.6 2.7-1.4 0.7-2.8 1.5-4.1 2.3-0.8 0.5-1.7 1-2.5 1.6-0.9 0.6-1.7 1.2-2.6 1.9-0.2 0.2-0.3 0.3-0.6 0.1-0.2-0.2-0.3-0.4-0.2-0.7 0.1-0.2 0.3-0.3 0.4-0.4 1-1.1 2.2-2 3.4-2.9 0.6-0.5 1.3-0.9 1.9-1.2 1.9-0.9 3.7-2.1 5.6-3 1-0.5 1.9-1.1 2.9-1.6 1.9-0.9 3.9-1.8 5.9-2.4 1.7-0.5 3.4-1.1 5.1-1.4 0.6-0.1 1.2-0.4 1.8-0.4 0.6-0.1 1.3-0.1 1.9-0.2 1-0.2 2-0.2 2.9-0.2 0.7-0.1 0.9 0.1 1 0.6z"/>
			<path d="m215.6 294.8h1.8c0.5 0 1 0.1 1.5 0.2s1 0 1.5 0.2 1 0.2 1.6 0.2c0.7 0.1 1.4 0.2 2.1 0.4 0.6 0.2 1.3 0.1 1.9 0.5 1.9 0.2 3.7 1.1 5.5 1.6 1.3 0.4 2.6 1 3.8 1.5 0.8 0.3 1.5 0.7 2.3 0.9 0.7 0.2 1.4 0.8 2.1 1.1 2 1.1 3.8 2.4 5.2 4.1 0.5 0.5 1 1.1 1.2 1.8 0.1 0.3 0.1 0.4-0.1 0.6s-0.4 0.1-0.5 0c-0.6-0.6-1.1-1.3-1.7-1.9-1.6-1.8-3.5-3-5.6-4s-4.3-2-6.6-2.7c-1.5-0.9-3.4-1-5-1.8-0.9 0.1-1.7-0.3-2.5-0.5-0.9-0.2-1.8-0.2-2.7-0.6h-0.1c-0.9-0.1-1.7-0.1-2.6-0.2-0.7-0.1-1.4-0.2-2-0.2-0.7 0-1.4 0.1-2 0-0.7-0.2-1.3-0.2-1.9-0.2-0.3 0-0.5-0.2-0.6-0.4s0.1-0.5 0.3-0.5c0.5-0.2 1-0.2 1.5-0.2 0.5 0.1 1 0.1 1.6 0.1z"/>
			<path d="m276.5 317.3c-0.1 0-0.3-0.1-0.3-0.1 0-0.1 0-0.3 0.1-0.4 0.2-0.2 0.5-0.4 0.8-0.6 1.4-1 2.8-1.6 4.4-2.1 1.4-0.4 2.9-0.8 4.3-1.1 1.2-0.3 2.4-0.6 3.5-0.9 1-0.3 1.9-0.5 2.9-0.6 0.4 0 0.8-0.2 1.1-0.2 0.4-0.1 0.8 0 1.2-0.2 0.5-0.2 1.1-0.2 1.7-0.2 1.1-0.1 2.3-0.4 3.4-0.5 1-0.2 2-0.1 3-0.6 1.3 0 2.5-0.6 3.8-0.4 0.2 0 0.5-0.1 0.5 0.3 0 0.3-0.1 0.6-0.5 0.6-0.7 0-1.4 0.4-2.1 0.5-0.6 0.1-1.2 0.3-1.8 0.4-0.6 0.2-1.2 0.2-1.8 0.4-0.4 0.1-0.9 0.2-1.4 0.2-1.1 0.1-2.1 0.3-3.2 0.5s-2.1 0.4-3.2 0.6c-0.9 0.2-1.9 0.4-2.8 0.5-1.2 0.2-2.4 0.5-3.5 0.9-0.8 0.3-1.6 0.4-2.4 0.6-1.8 0.5-3.7 0.8-5.4 1.7-0.6 0.3-1.2 0.5-1.8 0.7-0.2-0.1-0.3-0.1-0.5 0z"/>
			<path d="m286.7 321.9h7.7c1.1 0 2.1-0.2 3.2-0.2h3.2c0.7 0 1.3 0.3 2 0.2s1.4 0 2.1 0h4.2c0.3 0 0.7 0.2 1 0.2s0.2 0.3 0.2 0.4-0.1 0.2-0.2 0.3c-0.6 0.1-1.3 0.2-1.9 0.2h-9.3c-1.7 0-3.4 0.3-5.2 0.2s-3.5 0.1-5.3 0c-3.6-0.3-7.2-0.1-10.8-0.2-0.3 0-0.5-0.1-0.8-0.2-0.2-0.1-0.2-0.5 0-0.7 0.3-0.2 0.7-0.2 1-0.2h8.9z"/>
			<path d="m215.9 307.1h2.2c0.6 0 1.2 0.2 1.8 0.2s1.2-0.1 1.8 0c1.1 0.2 2.1 0.2 3.2 0.5 1.3 0.3 2.6 0.3 3.8 0.9 0.8 0 1.4 0.3 2.2 0.4 1.7 0.4 3.4 1 5.1 1.5 1.8 0.5 3.4 1.3 5 2.2 1 0.5 1.9 1.2 2.7 2 0.1 0.1 0.2 0.1 0.2 0.2 0 0.2 0.1 0.4 0 0.5s-0.4 0.1-0.5 0.1c-0.5-0.3-1-0.6-1.4-0.9-0.3-0.3-0.7-0.4-1.1-0.6-0.9-0.5-1.8-1-2.8-1.4-1.2-0.4-2.3-1-3.5-1.3-0.9-0.2-1.8-0.5-2.7-0.7-1-0.2-2-0.6-3-0.8-0.7-0.2-1.4-0.3-2.1-0.4-0.7-0.2-1.4-0.1-2-0.3-0.8-0.2-1.6 0-2.2-0.2-0.8-0.3-1.5 0-2.3-0.2-1.3-0.3-2.7-0.2-4.1-0.2h-4c-0.4 0-0.9 0.1-1.3-0.2-0.1-0.1-0.4 0-0.4-0.3 0-0.2 0.2-0.3 0.3-0.4 0.3-0.1 0.6-0.2 0.9-0.2 1.6-0.1 3-0.6 4.2-0.4z"/>
			<path d="m229.8 322.4h-9.7c-1.5 0-3.1 0.4-4.6 0.2-0.8 0.4-1.7 0-2.5 0.3-1.1 0.3-2.3 0.1-3.4 0.2-0.2 0-0.4 0-0.3-0.3 0-0.2 0-0.4 0.2-0.4 0.4 0 0.8-0.3 1.3-0.2 0.4 0 0.8-0.1 1.1-0.2s0.7 0.2 1-0.2h0.2c1.1 0.2 2.2-0.3 3.3-0.2 1 0.1 1.9-0.3 2.8-0.2 0.9 0 1.9 0.2 2.8 0 2.1-0.4 4.2-0.1 6.3-0.2s4.3-0.2 6.4 0c1.9 0.2 3.8 0.1 5.6 0.2 0.5 0 0.9 0.2 1.3 0.4 0.2 0.1 0.2 0.4 0 0.5-0.4 0.2-0.7 0.2-1.1 0.2-3.7-0.1-7.2-0.1-10.7-0.1z"/>
			<path d="m269.5 300.5c-0.2-0.1-0.4-0.1-0.4-0.1 0-0.1 0-0.3 0.1-0.4 1.1-1.1 2.2-2.2 3.2-3.3l1.7-1.7c1.3-1.4 2.9-2.5 4.5-3.5 1.5-1 3.1-1.8 4.6-2.7 2.2-1.3 5.6-2.6 7.6-3.3 0.8-0.3 1.6-0.3 2.4-0.7 0.3-0.1 0.6 0.1 0.7 0.4s0 0.5-0.3 0.7c-0.8 0.3-1.5 0.7-2.3 1-1.6 0.5-3.1 1.1-4.6 1.8-0.8 0.4-1.6 0.7-2.3 1.1-1 0.6-2.1 1.1-3.1 1.7-0.5 0.3-1.1 0.6-1.6 0.9-1.1 0.6-2.1 1.5-3.1 2.2-1.1 0.8-2.1 1.9-3.3 2.6l-0.2 0.2c-1 0.9-2 1.9-3 2.8l-0.6 0.3z"/>
			<path d="m225.1 286c1.5 0.3 3 0.2 4.4 0.7 2 0.2 3.8 1.2 5.7 1.6 1.4 0.8 3 1.4 4.4 2.3 1.1 0.8 2.2 1.7 3.4 2.4 0.7 0.5 1.4 0.9 2.2 1.3 1.4 0.8 2.8 1.6 4.1 2.5 1 0.6 1.8 1.5 2.4 2.5 0 0.1 0.1 0.3 0 0.3-0.1 0.1-0.3 0.1-0.4 0.1-0.2-0.1-0.4-0.2-0.5-0.4-0.7-0.6-1.4-1.3-2.1-1.9-0.5-0.3-1-0.7-1.6-0.9-0.5-0.1-0.9-0.4-1.3-0.7-1.5-0.9-2.9-1.8-4.3-2.8-1.8-1.3-3.7-2.5-5.8-3.3-1.2-0.5-2.5-1.1-3.8-1.3-0.9-0.6-2-0.5-3-0.9-0.5-0.2-1.1-0.2-1.7-0.2-1.3-0.2-2.5-0.2-3.8-0.2h-0.2c-0.2-0.1-0.4-0.3-0.4-0.4s0.2-0.4 0.4-0.4c0.5-0.1 1.2-0.2 1.9-0.3z"/>
			<path d="m307.6 355.4c0 0.3 0 0.6-0.3 0.8s-0.6 0.4-0.9 0.4c-0.6 0-1.4-0.9-1.4-1.5 0-0.8 0.6-1.4 1.4-1.4 0.7 0.1 1.2 0.7 1.2 1.7z"/>
			<path d="m229.4 345.9c-0.4 0.1-0.8-0.1-1.2-0.4-0.5-0.4-0.6-1.1-0.1-1.6 0.3-0.3 0.5-0.6 0.9-0.5 0.3-0.5 0.6-0.1 0.8 0 0.7 0.3 1 1.4 0.7 2.1-0.2 0.5-0.6 0.4-1.1 0.4z"/>
			<path d="m235 343.5c0.5-0.1 0.8 0.2 1 0.7 0.1 0.3 0.3 0.6 0.3 0.9 0.1 0.8-0.3 1.2-1.1 1.1-0.3 0-0.6 0.1-0.8-0.2-0.2-0.4-0.7-0.5-0.8-1-0.1-0.9 0.5-1.5 1.4-1.5z"/>
			<path d="m285.4 345.4c0 0.9-0.4 1.3-1.2 1.1-0.5-0.1-0.9-0.4-1.3-0.6-0.3-0.2-0.3-1.2 0-1.4 0.3-0.3 0.6-0.5 1-0.6 0.2-0.1 0.6-0.1 0.8 0.2 0.3 0.5 0.9 0.7 0.7 1.3z"/>
			<path d="m293.5 345.7s-0.3 0-0.4-0.1c-0.3-0.3-0.7-0.6-0.9-1-0.1-0.2 0-0.5 0.1-0.7 0.2-0.4 0.6-0.6 1-0.7 0.7-0.2 1 0 1.2 0.7 0.1 0.4 0.5 0.6 0.2 1.1-0.4 0.7-0.3 0.7-1.2 0.7z"/>
			<path d="m276.7 348.8c0 0.5-0.5 1.1-1 1.2-0.1 0-0.3-0.1-0.5-0.2-0.5-0.2-0.9-0.5-1-1-0.1-0.7 0.5-1.3 1.1-1.4 0.5-0.1 1.2 0.6 1.3 1.1 0.1 0 0.1 0.1 0.1 0.3z"/>
			<path d="m213.7 356.9c0 0.5-0.3 1-0.6 1.1-0.5 0.1-1.2-0.1-1.5-0.4-0.5-0.6-0.5-0.9 0.1-1.5 0.2-0.2 0.4-0.6 0.8-0.6 0.5 0 1.2 0.5 1.2 1v0.4z"/>
			<path d="m298.3 347.3c-0.5 0-0.8-0.2-1.2-0.5s-0.3-0.6-0.3-1c0-0.3 0.2-0.4 0.5-0.6 0.9-0.4 1.7-0.1 1.9 0.9 0.2 0.7-0.2 1.2-0.9 1.2z"/>
			<path d="m241.7 346.6c0 0.7-0.3 1.1-0.8 1.2-0.7 0-1.4-0.5-1.4-1.2 0-0.6 0.6-1.3 1.1-1.3 0.5-0.1 1.1 0.6 1.1 1.3z"/>
			<path d="m279.8 347.7c-0.7 0-1.3-0.6-1.3-1.2 0-0.5 0.7-1.1 1.3-1.1s1.2 0.7 1.2 1.3c-0.1 0.7-0.5 1-1.2 1z"/>
			<path d="m220.2 350c0 0.6-0.7 1.1-1.2 0.8-0.4-0.2-0.8-0.6-1.2-0.9-0.1-0.1 0-0.4 0-0.6 0.1-0.2 0.3-0.3 0.5-0.5 0.6-0.6 0.8-0.6 1.4 0.1 0.3 0.4 0.5 0.7 0.5 1.1z"/>
			<path d="m305 350.9c0.6 0 1.3 0.6 1.3 1.1s-0.6 1.1-1.2 1.2c-0.6 0-1.3-0.6-1.3-1.1 0-0.6 0.6-1.2 1.2-1.2z"/>
			<path d="m289 345.7c-0.6 0-1.3-0.6-1.3-1.1s0.6-1.2 1.2-1.2 1.2 0.5 1.3 1.1c0 0.5-0.7 1.2-1.2 1.2z"/>
			<path d="m216.8 353.6c0 0.6-0.7 1.1-1.3 0.8-0.3-0.1-0.5-0.3-0.7-0.5s-0.5-0.4-0.4-0.6c0-0.3 0.3-0.6 0.4-0.8s0.3-0.4 0.5-0.5c0.1-0.1 0.4-0.1 0.5-0.1 0.5 0.5 1 0.9 1 1.7z"/>
			<path d="m223.4 347.6c-0.3-0.4-0.9-0.2-1.2-0.6-0.1-0.1-0.2-0.2-0.2-0.3-0.1-0.3 0.2-0.9 0.7-1.3 0.3-0.2 0.7-0.2 1.1 0.1 0.6 0.6 0.7 1.1 0.2 1.8l-0.6 0.3z"/>
			<path d="m248 351.3c0 0.7-0.3 1.1-0.9 1.1-0.5 0-1.1-0.6-1.1-1.2 0-0.7 0.3-1.1 1-1 0.7 0 1 0.4 1 1.1z"/>
			<path d="m301.7 347.7c0.8 0 1.7 0.8 1.7 1.4 0 0.5-0.6 1-1.1 0.7-0.4-0.2-0.8-0.5-1.1-0.9-0.2-0.2-0.1-0.7 0-1 0.1-0.1 0.4-0.1 0.5-0.2z"/>
			<path d="m245.1 348.6s0 0.3-0.2 0.5-0.5 0.3-0.7 0.4c-0.4 0.1-1.1-0.8-1.1-1.1 0-0.5 0.7-1.1 1.1-1.1 0.6 0 0.9 0.4 0.9 1.3z"/>
			<path d="m273.3 351.2c0 0.6-0.4 1-0.8 1-0.5 0-1.2-0.7-1.2-1.2 0-0.3 0.7-1 1-1s0.4 0.2 0.6 0.4c0.3 0.2 0.5 0.4 0.4 0.8z"/>
			<path d="m307.2 359.8c-0.4 0-1.1-0.6-1.2-1 0-0.4 0.7-1 1.1-1 0.5 0 1.1 0.6 1.2 1.1 0 0.3-0.7 0.9-1.1 0.9z"/>
			<path d="m268.6 293h0.4c-0.1 0.4-0.3 0.8-0.4 1.2-0.1 0.3-0.4 0.6-0.3 1 0 0.1-0.1 0.3-0.2 0.4s-0.2 0.1-0.3 0.1-0.1-0.2-0.1-0.2c0-0.1 0.1-0.3 0.1-0.4 0.2-0.7 0.4-1.3 0.6-2l0.2-0.1z"/>
		</g>
		<path d="m171.4 137.9v0.7c-0.1 0.8-0.1 1.6-0.2 2.4-0.3 1.7-0.7 3.4-1 5.1-0.6 3.9-0.8 7.9-1.9 11.6-2 7-4.6 13.8-6.6 20.7-2 6.7-4.8 13-9.7 18.1-1.2 1.3-2.6 2.5-3.8 3.8-1.8 2-3.4 4.2-5.2 6.2-0.4 0.5-1 0.8-1.5 1.1-2.3 1.1-4.6 2.1-7 3.2-2 0.9-3.9 1.9-6 2.4-1.9 0.5-4 0.4-6 0.7-7 1-14.1 1.6-21.2 0.8-0.2 0-0.4-0.1-0.6-0.1 0.2 0 0.4-0.1 0.6-0.1 1.6 0.1 3.1 0.1 4.7 0.2 0.2 0 0.4-0.1 0.5-0.2-0.1-0.1-0.1-0.2-0.2-0.2-0.9-0.1-1.7-0.2-2.6-0.4-2.3-0.4-4.6-0.6-6.8-1.2-2.9-0.7-5.7-1.6-8.5-2.5-1.7-0.6-3.4-1.1-4.9-2.1-3.7-2.6-7.2-5.5-10.8-8.2-0.5-0.4-1.1-0.6-1.6-0.9-0.2 0.5-0.4 0.9-0.6 1.4-0.1 0.2-0.6 0.4-0.7 0.3-1.4-1.1-3.1-2-4.2-3.4-3.3-4.1-6.5-8.3-9.6-12.6-1.8-2.5-3.8-4.9-4.9-7.7-1.5-3.7-2.5-7.7-3.3-11.6-1.9-8.8-3.8-17.6-5.2-26.5-1.1-6.7-1.7-13.4-2.4-20.2-0.3-2.8-0.4-5.7-0.6-8.6 0-2.4 0.1-4.9 0.1-7.3 0.2-4.3 0.3-8.6 0.8-12.8 0.6-5.9 1.7-11.6 4-17.1 1.3-3.2 2.4-6.5 3-9.9 0.5-2.7 0.8-5.4 2.3-7.8 1.2-1.9 2.5-3.8 3.3-5.8 2.3-6.1 6.2-11 11.3-15.1 3.7-3 7.4-6.1 11.9-7.9 8.1-3.3 16.6-4.1 25.3-3.3 4 0.4 7.9 0.7 11.8-0.6h3.7c1.1 0.1 2.3 0.2 3.4 0.1 5.9-0.3 11.4 1.4 16.4 4.1 4.2 2.3 7.9 5.5 11.7 8.5 1.9 1.4 4 2.8 5.3 4.6 1.9 2.7 3.2 5.8 4.7 8.7 1.9 3.7 4.1 7.3 5.3 11.3 1.8 6.1 3.3 12.3 4.2 18.5 0.8 5.5 0.6 11.2 0.9 16.7 0.4 8 0.9 15.9 1.4 23.9 0.2 2.5 0.6 5 0.8 7.6v3.1c-0.1 1.2-0.1 2.4-0.2 3.6 0.4 1.8 0.4 3.2 0.4 4.7zm-58.8 56.6c0.5-0.6 1.1-1.3 1.7-2l-0.3-0.3c-0.7 0.4-1.4 0.7-2 1.2-0.3 0.2-0.4 0.5-0.6 0.8 0.2 0 0.5 0.1 1.2 0.3zm47.8-45.8v0.9c0 0.1 0.1 0.2 0.1 0.3 0.1-0.1 0.2-0.2 0.2-0.3 0.2-1.9 0.3-3.8 0.4-5.7 0-0.1-0.1-0.2-0.2-0.3 0 0.1-0.1 0.3-0.1 0.4-0.1 1.6-0.2 3.1-0.4 4.7zm0.3 7.8h-0.1v-1.8c0-0.2-0.1-0.3-0.2-0.5-0.1 0.1-0.2 0.3-0.2 0.4v2.1c0 1.1 0 2.1-0.1 3.2 0.2-1.1 0.4-2.3 0.6-3.4zm-38.1-71.6c0.9-0.7 0.5-1.8 1.2-2.4 0.1 0 0-0.3-0.1-0.4-0.5 0.3-1.1 0.5-1.6 0.8-0.3 0.1-0.5 0.3-0.7 0.6 0 0.2 1.1 1 1.2 1.4zm-39-44.7l0.4-0.6s-2-0.1-2.4-0.2c-0.2 0-0.4 0.3-0.6 0.4 0.5 0.3 1 0.6 1.6 0.8 0.2 0.1 1-0.4 1-0.4zm31 1.2c-0.1 0.4 0 1.3 0 1.6 0.4 0 0.7-0.6 1.1-0.6 0.3 0 0.5 0.1 0.8 0.2-0.2-0.2-0.3-0.6-0.6-0.7-0.3-0.3-0.7-0.3-1.3-0.5zm6.5 39.3c0.5-0.4 1.6-0.4 2.1-0.8 0.1-0.1-0.5-0.4-0.7-0.6-0.5 0.5-1.9-0.3-2.3 0.2 0 0.1 0.7 1 0.9 1.2zm-5.7 113.9c0.4-0.2 0.8-0.4 1.2-0.5-0.5-0.1-1-0.2-1.5-0.2-0.3 0-0.6 0.2-0.9 0.4 0.3 0 0.7 0.1 1.2 0.3zm40-120.6c-0.2-0.6 0.1-1.2-0.1-1.8 0 0.1-0.4-0.5-0.7-0.3s-0.4 1-0.4 1c0.2 0.6 0.7 0.9 0.9 1.5 0.1-0.1 0.2-0.2 0.3-0.4zm-79.8 127.3h-0.2c0.3 0.4 0.6 0.8 0.9 1.2 0.3 0.3 0.7 0.4 1.1 0.7v-0.2c-0.6-0.6-1.2-1.1-1.8-1.7zm48.9-166.4c-0.2 0.1-0.2 0.2-0.3 0.3 0.5 0.3 0.6 0.4 1.1 0.7 0 0 0.9 0.7 1.2 0.6 0.3-0.2 0-1.1 0.1-1.1-0.6-0.4-1.5-0.1-2.1-0.5zm-1.3 45.7c-0.2-0.1-0.3-0.3-0.4-0.3-0.2 0-0.4 0.2-0.4 0.4 0 0.1 0.6 0.6 0.7 0.8 0.1-0.2-0.1-0.7 0.1-0.9zm-61.3-7c0.3-0.2 0.4-0.4 0.5-0.5 0-0.1 0-0.2-0.1-0.3-0.2 0.1-0.3 0.2-0.4 0.4v0.4zm34.3 114.8c0-0.1 0.1-0.2 0.1-0.3 0 0-0.1-0.1-0.2-0.1s-0.2 0.1-0.3 0.2c0.1 0 0.2 0 0.4 0.2zm53.9-151c-0.2-0.1-0.3-0.2-0.4-0.3l-0.1 0.1 0.3 0.3c0.1 0.1 0.1 0 0.2-0.1zm-42.8 177.4h0.2s0-0.1 0.1-0.1h-0.2s0 0.1-0.1 0.1z" fill="#363636"/>
		<path d="m40.9 103.4h0.2c0 2.4-0.1 4.9-0.1 7.3h-0.2c0-2.4 0.1-4.9 0.1-7.3z" fill="#9A9A9A"/>
		<path d="m172.6 138.3c0-1.5-0.1-2.9-0.1-4.4h0.1v4.4z" fill="#7E7E7E"/>
		<path d="m114.7 23.1v-0.2h3.6v0.2h-3.6z" fill="#969696"/>
		<path d="m172.5 141.4h-0.2c0.1-0.8 0.1-1.6 0.2-2.4v2.4z" fill="#7E7E7E"/>
		<g fill="#fff">
			<path d="m57.9 119.6c0.2-0.1 0.5-0.2 0.7-0.3-0.2-0.1-0.4-0.2-0.7-0.3-0.6-0.2-1.1-0.5-1.7-0.7v-0.7c0.3-0.5 0.5-1 0.9-1.4 0.7-0.7 1.3-1.6 2.1-1.8 1.9-0.3 3.8-0.3 5.7-0.4 3.6-0.1 7.1-0.3 10.7-0.2 2 0 4 0.3 6 0.6 0.2 0 0.6 1 0.5 1.1-1.1 0.8 0.2 1.1 0.3 1.6 0 0.2 0.4 0.5 0.4 0.7-0.1 0.5-0.3 0.9-0.6 1.3-0.4 0.4-1.2 0.3-1.2 1.4 0 0.6-1.4 1.6-2.2 1.7-3.2 0.4-6.5 0.5-9.8 0.7-2.3 0.1-4.7 0.4-7 0-1.8-0.3-3.4-1.7-5.1-2.6 0.2-0.3 0.4-0.5 0.6-0.8 0.2 0.3 0.4 0.8 0.7 0.8 0.5 0 0.9-0.2 1.4-0.4-0.3 0-0.7 0-1-0.1-0.2 0.1-0.5-0.1-0.7-0.2z"/>
			<path d="m112 187.9c-4.7-0.8-9.7-1.7-14.4-4-2.9-1.4-3.5-6.4-1.2-8.6 3.3-3.1 7.1-4.9 11.8-5.1 4.5-0.2 8.9-0.2 13.3 0.8 3.7 0.9 7.3 4.8 7 8.6-0.1 1.1-1 2.5-1.9 3.2-3 2.1-6.2 4.1-10 4.7-1.4 0.3-2.8 0.3-4.6 0.4zm0.4-15c-1.3 0.1-2.6 0.2-3.9 0.4-1 0.2-2 0.6-3.1 0.8-2.6 0.6-5.3 1.2-7.1 3.4-0.5 0.6-0.5 1.9-0.3 2.8 0.1 0.6 1 1.2 1.7 1.3 2.6 0.6 5.4 0.9 8 1.5 5.3 1.4 10.4 1.3 15.1-1.9 0.8-0.5 1.9-1.7 1.7-2.2-0.4-1.3-1.2-2.9-2.3-3.6-3-1.9-6.3-2.5-9.8-2.5z"/>
			<path d="m141.9 123.3c-3.3 0.3-6.7 0.5-10 0.8-0.3 0-0.6 0.1-0.9 0-0.2-0.1-0.5-0.2-0.7-0.4 0.2-0.1 0.4-0.2 0.7-0.3 0.2-0.1 0.5-0.1 0.7-0.2-0.2-0.1-0.5-0.3-0.7-0.3-0.9-0.1-1.8 0-2.7-0.1-0.2 0-0.3-0.1-0.5-0.1 0.1-0.1 0.3-0.1 0.4-0.2 0.4-0.2 0.8-0.4 1.2-0.5s0.7-0.2 1.1-0.3h-1.2c-0.7 0.1-1.4 0.2-2.1 0.2-0.1 0-0.3-0.1-0.5-0.2 0.1-0.1 0.2-0.3 0.4-0.3 0.7-0.1 1.3-0.2 2-0.4 0.2 0 0.3-0.2 0.5-0.3l-0.6-0.3c-0.9-0.2-1.8-0.3-2.6-0.6-0.2-0.1-0.4-0.4-0.6-0.6 0.3-0.2 0.5-0.4 0.8-0.5s0.5-0.1 0.8-0.2c-0.2-0.1-0.5-0.1-0.6-0.3-0.1-0.4-0.3-0.9-0.1-1.1 0.5-0.6 1.1-1.5 1.8-1.7 2.1-0.4 4.2-0.6 6.4-0.8 3.4-0.3 6.7-0.5 10.1-0.7 2.5-0.2 5-0.4 7.4-0.3 0.8 0.1 2.4 0.5 2 2.3-0.1 0.4 0.5 1 0.7 1.6 0.1 0.3 0.1 0.7-0.1 0.9-0.5 0.5-1.2 0.9-1.6 1.5-0.2 0.2 0.2 1 0 1.2-0.7 0.6-1.5 1.4-2.4 1.5-3 0.4-6 0.6-9 0.9-0.1 0.1-0.1-0.1-0.1-0.2zm1.6-0.1c1.9-0.2 3.7-0.3 5.4-0.5 0.2 0 0.3-0.1 0.5-0.2-0.2-0.1-0.4-0.2-0.6-0.1-1.8 0.1-3.6 0.3-5.3 0.4-0.2 0-0.5 0.2-0.7 0.3 0.3 0 0.5 0 0.7 0.1z"/>
		</g>
			<path d="m73 99c0.5 1.3 0.2 2.9 0.1 4.2-0.1 1.6-0.3 3.1-0.5 4.6-0.1 1.2-0.1 2.6-1 3.5-0.6 0.6-1.9 0.6-2.4-0.1-0.7-0.9-0.3-2.5-0.2-3.6 0.1-1.6 0.3-3.1 0.7-4.7 0.4-1.4 1-2.8 1.7-4 0.1-0.2 0.6-1.4 1-1.1 0.3 0.3 0.5 0.8 0.6 1.2z" fill="#FE0B06"/>
			<path d="m142.7 109.8c-0.1 2-2.9 3.3-3.3 0.7-0.2-1.3-0.3-2.7-0.4-4-0.1-1.4-0.5-2.8-0.5-4.1 0-0.8 0.4-1.9 1.3-1.7 1.3 0.3 1.8 1.2 2 2.4 0.5 2.1 1.1 4.5 0.9 6.7z" fill="#FE0B06"/>
			<path d="m68 129c0.1-0.7 0.5-2.1 1.5-1.7 1.1 0.5 1.2 2.2 1.5 3.2 0.3 1.2 0.6 2.4 0.9 3.5 0.2 1 0.9 2.4 0.4 3.4-1.1 2.4-3.1-1.2-3.5-2.2-0.6-1.7-1.1-4.2-0.8-6.2z" fill="#FE0C07"/>
			<path d="m142.6 134c-0.2 1-0.5 5.8-2.6 4.5-1-0.6-0.4-2.2-0.3-3.2l0.6-4.2c0.2-1.2 0.4-2.5 0.6-3.7 0.2-1 1.3-0.9 1.8-0.3 0.5 0.7 0.4 2.1 0.4 2.9 0.1 1.3-0.2 2.7-0.5 4z" fill="#FE0C08"/>
</svg>
